<?xml version="1.0" standalone="no"?>
<!DOCTYPE svg PUBLIC "-//W3C//DTD SVG 1.1//EN" "http://www.w3.org/Graphics/SVG/1.1/DTD/svg11.dtd" >
<svg xmlns="http://www.w3.org/2000/svg">
<metadata></metadata>
<defs>
<font id="copperplate_gothiccondensed" horiz-adv-x="1009" >
<font-face units-per-em="2048" ascent="1638" descent="-410" />
<missing-glyph horiz-adv-x="505" />
<glyph unicode="&#xfb01;" horiz-adv-x="1210" d="M100 0v25q29 8 38 19t9 40v715q0 29 -9 40t-38 19v25h553q41 0 47 47h23v-207h-23q-4 23 -14 32t-33 9h-364v-250h237q41 0 47 47h23v-211h-23q-4 27 -14 36t-35 9h-235v-311q0 -45 51 -59v-25h-240zM866 0v25q29 8 39.5 19t10.5 40v715q0 29 -10.5 40t-39.5 19v25h240 v-25q-29 -8 -39 -19.5t-10 -39.5v-715q0 -29 10 -40t39 -19v-25h-240z" />
<glyph unicode="&#xfb02;" horiz-adv-x="1533" d="M100 0v25q29 8 38 19t9 40v715q0 29 -9 40t-38 19v25h553q41 0 47 47h23v-207h-23q-4 23 -14 32t-33 9h-364v-250h237q41 0 47 47h23v-211h-23q-4 27 -14 36t-35 9h-235v-311q0 -45 51 -59v-25h-240zM868 0v25q29 8 39.5 19t10.5 40v715q0 29 -10.5 40t-39.5 19v25h238 v-25q-29 -8 -38 -19.5t-9 -39.5v-676h381q39 0 45 47h25v-209h-25q-4 23 -14.5 31t-32.5 8h-570z" />
<glyph horiz-adv-x="2048" />
<glyph horiz-adv-x="2048" />
<glyph unicode="&#xd;" horiz-adv-x="505" />
<glyph unicode=" "  horiz-adv-x="505" />
<glyph unicode="&#x09;" horiz-adv-x="505" />
<glyph unicode="&#xa0;" horiz-adv-x="505" />
<glyph unicode="!" horiz-adv-x="552" d="M145 1053v22h263v-22q-35 -8 -42.5 -20.5t-9.5 -41.5l-45 -596v-10q0 -23 7.5 -33t29.5 -18v-23h-145v23q23 8 30 18t7 33v10l-45 596q-2 29 -8.5 41t-41.5 21zM176 80q0 41 30 69.5t70 28.5q41 0 70 -27.5t29 -70.5q0 -41 -29 -69.5t-70 -28.5t-70.5 28.5t-29.5 69.5z " />
<glyph unicode="&#x22;" horiz-adv-x="569" d="M98 881v553h101v-553h-101zM371 881v553h102v-553h-102z" />
<glyph unicode="#" horiz-adv-x="1574" d="M117 479l39 107h325l101 278h-353l35 107h354l173 483h127l-168 -483h264l172 483h127l-170 -483h315l-37 -107h-317l-98 -278h340l-37 -107h-340l-170 -479h-129l172 479h-269l-172 -479h-127l170 479h-327zM612 586h267l96 278h-266z" />
<glyph unicode="$" d="M84 53l106 260l23 -10q0 -4 -1 -7t-1 -7q0 -53 62.5 -101.5t177.5 -64.5v383q-317 82 -318 291q0 121 84 200.5t234 92.5v127h86v-125q55 -4 100 -17.5t79 -28t57.5 -26.5t37.5 -12q10 0 20.5 7t24.5 19l21 -12l-119 -215l-21 12q2 6 3 11.5t1 11.5q0 41 -53 76.5 t-151 48.5v-336q174 -45 254.5 -117t80.5 -205q0 -137 -87 -221t-248 -100v-178h-86v180q-59 4 -107.5 18.5t-85.5 29.5t-63.5 26.5t-42.5 11.5q-20 0 -48 -31zM270 817q0 -68 42 -102.5t139 -57.5v310q-88 -10 -134.5 -50t-46.5 -100zM537 121q98 6 147 52t49 126 q0 72 -46 114t-150 66v-358z" />
<glyph unicode="%" horiz-adv-x="1449" d="M72 766q0 74 20.5 134.5t58 103.5t89 66.5t112.5 23.5t113.5 -23.5t89.5 -66.5t58.5 -103.5t21.5 -134.5t-21.5 -134.5t-58.5 -104.5t-89 -67.5t-114 -23.5q-61 0 -112.5 23.5t-89 67.5t-58 104.5t-20.5 134.5zM190 766q0 -109 45.5 -166t116.5 -57q72 0 118 57t46 168 q0 109 -46 166t-118 57t-117 -57t-45 -168zM299 -18l750 1112h108l-749 -1112h-109zM817 309q0 74 20.5 134.5t58.5 103.5t89 66.5t113 23.5q61 0 113.5 -23.5t89 -66.5t58 -103.5t21.5 -134.5t-21.5 -134t-58 -103t-89 -66.5t-113.5 -23.5t-112.5 23.5t-89.5 66.5 t-58.5 103t-20.5 134zM936 311q0 -109 45 -166t117 -57t118 57.5t46 167.5q0 109 -46.5 166.5t-117.5 57.5q-72 0 -117 -57.5t-45 -168.5z" />
<glyph unicode="&#x26;" horiz-adv-x="1124" d="M135 328q0 213 223 297q-72 33 -110.5 90t-38.5 131q0 51 20.5 96t57.5 79t89 53.5t118 19.5q131 0 208.5 -71t77.5 -175q0 -45 -14 -82t-37.5 -64.5t-53.5 -47t-61 -29.5q57 -29 89 -66t51 -90q27 63 58.5 105t60 73t49 53.5t26.5 44.5h25v-274h-25q0 29 -22 29 q-43 0 -117 -191q29 -80 59.5 -119.5t49.5 -39.5q29 0 30 43h25v-209q-80 2 -133.5 43t-106.5 127q-104 -176 -278 -177q-68 0 -126.5 27t-101.5 75t-67.5 111.5t-24.5 137.5zM291 328q0 -45 15.5 -83t40 -66.5t57 -45t69.5 -16.5q53 0 108.5 40t100.5 122 q-25 133 -75 196.5t-134 63.5q-37 0 -69.5 -16.5t-58.5 -45t-40 -66.5t-14 -83zM346 827q0 -57 43 -98t105 -41q61 0 105 41t44 98t-43 97.5t-106 40.5q-61 0 -104.5 -40.5t-43.5 -97.5z" />
<glyph unicode="'" horiz-adv-x="294" d="M98 881v553h101v-553h-101z" />
<glyph unicode="(" horiz-adv-x="710" d="M154 432q0 147 61 282.5t182 250.5q70 66 121 97.5t60 31.5q16 0 16 -15q0 -23 -28.5 -40t-69.5 -58q-182 -186 -183 -549q0 -340 154 -520q27 -31 50.5 -51.5t39.5 -33.5t26.5 -23.5t10.5 -20.5q0 -12 -16 -12q-8 0 -50.5 23.5t-99.5 74.5q-137 121 -205.5 262 t-68.5 301z" />
<glyph unicode=")" horiz-adv-x="710" d="M115 -217q0 23 28.5 39t69.5 57q182 186 182 551q0 336 -153 518q-27 31 -50.5 51.5t-40 35t-26.5 24.5t-10 20q0 12 16 13q8 0 49 -24t99 -75q137 -121 205.5 -262t68.5 -301q0 -147 -60.5 -283.5t-181.5 -250.5q-70 -66 -121 -96.5t-59 -30.5q-16 0 -16 14z" />
<glyph unicode="*" horiz-adv-x="1024" d="M166 745l70 209l22 -8v-8q0 -27 9 -36t32 -19l188 -101l-36 209q-4 27 -9.5 39t-38.5 23v22h218v-22q-33 -10 -38 -22.5t-10 -39.5l-36 -209l188 101q23 10 32 19t9 36v8l22 8l70 -209l-24 -6q-23 31 -39 31q-2 0 -10.5 -1t-22.5 -3l-211 -31l154 -147q12 -12 21 -19.5 t19 -7.5q6 0 14.5 2t18.5 6l15 -20l-177 -129l-14 20q18 27 19 37q0 10 -15 39l-94 193l-94 -193q-14 -29 -15 -39q0 -10 19 -37l-14 -20l-177 129l15 20q10 -4 18 -6t15 -2q10 0 19 7t21 20l154 147l-211 31q-14 2 -22.5 3t-10.5 1q-18 0 -39 -31z" />
<glyph unicode="+" horiz-adv-x="1705" d="M254 561v98h551v562h98v-562h549v-98h-549v-561h-98v561h-551z" />
<glyph unicode="," horiz-adv-x="505" d="M104 -203q78 41 117 88t39 86q0 23 -9 25t-32 6q-84 12 -84 88q0 41 29 70.5t72 29.5q51 0 84.5 -40.5t33.5 -110.5q0 -94 -62.5 -173t-187.5 -132v63z" />
<glyph unicode="-" horiz-adv-x="671" d="M100 471v135h469v-135h-469z" />
<glyph unicode="." horiz-adv-x="505" d="M154 80q0 41 28.5 69.5t69.5 28.5t70.5 -27.5t29.5 -70.5q0 -41 -29.5 -69.5t-70.5 -28.5t-69.5 28.5t-28.5 69.5z" />
<glyph unicode="/" horiz-adv-x="569" d="M-127 -190l633 1284h104l-633 -1284h-104z" />
<glyph unicode="0" d="M72 537q0 127 32.5 229t90 175t136.5 113t173 40t174 -40t137 -113t90 -176t33 -228q0 -127 -33 -229.5t-91 -174.5t-137 -111.5t-173 -39.5t-173 38.5t-136.5 111.5t-90 175.5t-32.5 229.5zM223 541q0 -209 79 -318.5t204 -109.5q123 0 201.5 109.5t78.5 318.5 q0 207 -77.5 316.5t-202.5 109.5t-204 -109.5t-79 -316.5z" />
<glyph unicode="1" d="M309 743v205h25q8 -27 33 -26q10 0 17 2t17 6l54 22v39q0 29 -9.5 41t-37.5 21v22h245v-22q-29 -8 -38 -20.5t-9 -41.5v-907q0 -29 9.5 -40t37.5 -19v-25h-245v25q29 8 38 19t9 40v737l-72 -26q-23 -8 -33 -18.5t-16 -33.5h-25z" />
<glyph unicode="2" d="M102 895l17 16q18 -10 37 -10q14 0 33.5 19.5t54.5 52.5q66 61 127 91t149 30q68 0 126.5 -21.5t99 -60.5t64.5 -92.5t24 -114.5q0 -74 -26 -128t-71 -101.5t-107.5 -93.5t-133.5 -103q-90 -72 -138.5 -128t-56.5 -116h496q29 0 40 9.5t19 37.5h25v-221h-25 q-6 25 -17.5 32t-37.5 7h-596q-27 0 -37 -7t-16 -32h-25v25q0 131 49 230t154 198q70 68 134 114.5t113.5 88.5t78 85t28.5 103q0 78 -47 120t-135 42q-49 0 -89 -18.5t-69 -46.5t-44 -60.5t-15 -59.5q0 -18 14 -51l-16 -16z" />
<glyph unicode="3" d="M66 98l106 221l23 -10q-2 -4 -2 -14q0 -31 24.5 -63.5t64.5 -59.5t93 -43t110 -16q104 0 168 55t64 143q0 92 -64.5 147.5t-183.5 55.5q-45 0 -68.5 -9t-35.5 -44h-25v227h25q14 -35 34.5 -43t61.5 -8q113 0 171 44t58 126q0 66 -55 112t-148 46q-51 0 -94 -14.5 t-73.5 -36t-47 -49t-16.5 -52.5q0 -18 12 -45l-16 -16l-172 176l18 16q14 -4 21.5 -4h11.5q25 0 53.5 23.5t70.5 52t99.5 52.5t137.5 24q78 0 141 -21.5t107 -59.5t69 -90.5t25 -113.5q0 -74 -36 -129.5t-110 -102.5q92 -41 136 -104t44 -158q0 -72 -26.5 -132t-75.5 -105 t-121 -69.5t-162 -24.5t-152.5 19t-104.5 43t-66.5 43t-38.5 19t-35 -18z" />
<glyph unicode="4" d="M86 166v158l422 665q12 18 12 31q0 25 -26 33v22h307v-22q-29 -8 -38 -20.5t-9 -41.5v-645h57q35 0 44 11.5t15 35.5h25v-227h-25q-8 29 -19 38t-40 9h-57v-129q0 -29 9 -40t38 -19v-25h-242v25q29 8 38 19t9 40v129h-436q-29 0 -40 -9t-19 -38h-25zM240 344h368l21 617z " />
<glyph unicode="5" d="M100 616l13 21q20 2 31.5 12t11.5 21v327q0 29 -7.5 40.5t-35.5 15.5v22h649q27 0 37 7.5t16 31.5h25v-221h-25q-8 29 -19.5 38t-39.5 9h-463v-305q63 41 119.5 62.5t128.5 21.5q80 0 146.5 -27.5t114.5 -76t75.5 -115t27.5 -146.5q0 -82 -28.5 -150.5t-81 -118.5 t-125 -77.5t-160.5 -27.5q-86 0 -145.5 19t-99.5 44t-63.5 44t-37.5 19q-10 0 -33 -16l-20 12l133 215l22 -12q-2 -6 -2 -20q0 -33 18.5 -64t50.5 -54.5t75 -37.5t92 -14q115 0 182.5 64.5t67.5 174.5q0 104 -63.5 170t-162.5 66q-78 0 -126 -36t-48 -73q0 -6 6 -24l-16 -21 z" />
<glyph unicode="6" d="M127 483q0 147 30.5 261t87 192t135.5 118t173 40q61 0 108.5 -13.5t80 -31t55 -30.5t34.5 -13q10 0 39 18l21 -14l-141 -203l-21 14q4 14 6 23.5t2 13.5q0 14 -15 33.5t-41 36t-61.5 28t-76.5 11.5q-119 0 -190 -103.5t-77 -306.5q59 70 128 101.5t155 31.5 q76 0 138.5 -24.5t107.5 -70.5t69.5 -109.5t24.5 -141.5q0 -166 -102.5 -264t-274.5 -98q-188 0 -291.5 127t-103.5 374zM297 342q0 -98 64.5 -162.5t162.5 -64.5q100 0 162 62.5t62 166.5q0 106 -61.5 165.5t-162.5 59.5q-47 0 -89 -17t-72.5 -48t-48 -73t-17.5 -89z" />
<glyph unicode="7" d="M127 899v215h23q6 -25 17 -32t38 -7h586q27 0 38 7.5t17 31.5h24v-158l-383 -862q-8 -18 -8 -31q0 -33 43 -38v-25h-264v25q29 8 45 21t27 40l383 860h-502q-29 0 -41 -9t-20 -38h-23z" />
<glyph unicode="8" d="M98 301q1 183 191 283q-145 80 -146 229q0 59 25 110.5t71 89.5t113.5 59.5t153.5 21.5q174 0 267 -81t93 -204q0 -66 -36.5 -124t-108.5 -101q190 -102 190 -283q0 -68 -26.5 -126t-78.5 -101t-128 -68.5t-172 -25.5t-172 25.5t-128 68.5t-80 101t-28 126zM250 311 q0 -86 66.5 -142t189.5 -56t189.5 55t66.5 143q0 86 -68.5 141.5t-187.5 55.5t-187.5 -55.5t-68.5 -141.5zM285 807q0 -78 57 -123t164 -45q104 0 161.5 45t57.5 123q0 72 -57.5 118t-161.5 46t-162.5 -46t-58.5 -118z" />
<glyph unicode="9" d="M119 731q0 82 26.5 148.5t74.5 113.5t114.5 74t146.5 27q199 0 305.5 -129t106.5 -385q0 -293 -114.5 -446.5t-309.5 -153.5q-63 0 -110.5 13t-81 30.5t-55 31t-34.5 13.5q-14 0 -41 -17l-20 10l117 218l20 -11v-12q0 -57 60.5 -100t152.5 -43q119 0 188.5 104.5 t75.5 308.5q-111 -129 -282 -129q-76 0 -138.5 24.5t-107.5 69t-69.5 105.5t-24.5 135zM268 745q0 -98 62.5 -157.5t163.5 -59.5q47 0 89 17.5t72.5 47.5t48 70t17.5 85q0 94 -63.5 155.5t-163.5 61.5q-106 0 -166 -60.5t-60 -159.5z" />
<glyph unicode=":" horiz-adv-x="552" d="M176 80q0 41 30 69.5t70 28.5q41 0 70 -27.5t29 -70.5q0 -41 -29 -69.5t-70 -28.5t-70.5 28.5t-29.5 69.5zM176 612q0 41 30 71t70 30q41 0 70 -29t29 -72q0 -41 -29 -69.5t-70 -28.5t-70.5 28.5t-29.5 69.5z" />
<glyph unicode=";" horiz-adv-x="552" d="M127 -203q78 41 118 88t40 86q0 23 -10.5 25t-32.5 6q-82 12 -82 88q0 41 27.5 70.5t70.5 29.5q51 0 85 -40.5t34 -110.5q0 -94 -62.5 -173t-187.5 -132v63zM160 612q0 41 28.5 71t69.5 30t70.5 -29t29.5 -72q0 -41 -29.5 -69.5t-70.5 -28.5t-69.5 28.5t-28.5 69.5z" />
<glyph unicode="&#x3c;" horiz-adv-x="1705" d="M264 569v82l1178 484v-109l-1022 -416l1022 -413v-109z" />
<glyph unicode="=" horiz-adv-x="1705" d="M254 375v98h1198v-98h-1198zM254 748v98h1198v-98h-1198z" />
<glyph unicode="&#x3e;" horiz-adv-x="1705" d="M264 88v109l1022 413l-1022 416v109l1178 -484v-82z" />
<glyph unicode="?" horiz-adv-x="817" d="M74 987l18 17q25 -10 31 -11q16 0 36.5 15.5t51.5 35t75 35t105 15.5q133 0 211 -75t78 -192q0 -53 -15.5 -91t-39 -69.5t-52 -60t-55.5 -61.5q-29 -35 -45 -74t-16 -74q0 -29 9 -40t42 -19v-25h-225v25q27 2 36 13t12 34t7 56.5t20 78.5q14 43 43 79t57.5 69.5t49 69.5 t20.5 79q0 70 -38.5 109t-104.5 39q-72 0 -108.5 -30t-36.5 -58q0 -18 12 -46l-19 -16zM291 80q0 41 28.5 69.5t69.5 28.5t70.5 -27.5t29.5 -70.5q0 -41 -29.5 -69.5t-70.5 -28.5t-69.5 28.5t-28.5 69.5z" />
<glyph unicode="@" horiz-adv-x="2048" d="M117 537q0 205 86 382t252 314q268 221 659 221q168 0 312.5 -45t244.5 -123q129 -100 194.5 -228t65.5 -280q0 -174 -62.5 -311t-180.5 -231q-141 -111 -310 -111q-193 0 -192 151q0 6 1 13.5t1 15.5q-51 -88 -127 -134t-168 -46q-154 0 -233.5 84t-79.5 244 q0 117 36.5 217t99 172.5t147.5 114.5t181 42q188 0 254 -163l60 125h94l-139 -562q-8 -35 -12.5 -56t-4.5 -36q0 -43 28 -67.5t79 -24.5q49 0 103.5 20.5t107.5 61.5q96 76 150.5 202t54.5 285q0 123 -51.5 229.5t-143.5 184.5t-222 122t-290 44q-350 0 -582 -199 q-297 -254 -297 -653q0 -174 58.5 -304t185.5 -233q100 -82 241.5 -128t303.5 -46q174 0 337 50.5t298 142.5l39 -55q-295 -221 -654 -222q-383 0 -622 185q-156 119 -229.5 273.5t-73.5 361.5zM702 444q0 -113 54.5 -174t152.5 -61q106 0 189.5 70.5t111.5 189.5l62 248 q-18 94 -75.5 146t-139.5 52q-78 0 -143.5 -35.5t-112.5 -99t-73 -149.5t-26 -187z" />
<glyph unicode="A" horiz-adv-x="962" d="M8 0v25q49 12 64 61l276 905q8 27 8 37q0 20 -37 25v22h310v-22q-35 -4 -35 -31q0 -10 6 -31l295 -905q10 -29 19.5 -43t37.5 -18v-25h-243v25q35 6 34 32q0 12 -6 29l-71 225h-392l-67 -225q-2 -6 -4 -13t-2 -14q0 -29 39 -34v-25h-232zM315 440h308l-158 492z" />
<glyph unicode="B" horiz-adv-x="1028" d="M129 0v25q29 8 38 19t9 40v907q0 29 -9 41t-38 21v22h432q166 0 253 -74.5t87 -203.5q0 -158 -164 -234q184 -70 185 -254q0 -141 -92.5 -225t-256.5 -84h-444zM328 135h219q219 0 219 180t-238 181h-200v-361zM328 616h184q121 0 179.5 38t58.5 130q0 94 -58.5 131 t-181.5 37h-182v-336z" />
<glyph unicode="C" d="M78 537q0 123 36 225t99 176t151.5 115t192.5 41q70 0 124 -17.5t94 -38t67.5 -38t48.5 -17.5q16 0 35 8l18 -12l-137 -199l-21 13q2 6 2 16q0 27 -18 54.5t-50 50t-75 37t-90 14.5q-68 0 -126 -31t-101 -87t-67.5 -135t-24.5 -173q0 -96 24.5 -174t67.5 -133.5t101 -86 t126 -30.5q53 0 98 18.5t77 44t50.5 54t18.5 51.5q0 14 -8 36l18 15l160 -197l-19 -16q-27 10 -37 10q-18 0 -37.5 -17.5t-48.5 -39.5q-111 -92 -272 -92q-104 0 -191.5 40.5t-150.5 114.5t-99 175.5t-36 224.5z" />
<glyph unicode="D" horiz-adv-x="1085" d="M115 0v25q29 8 38 19t9 40v907q0 29 -9.5 41t-37.5 21v22h329q102 0 185.5 -10t152.5 -53q217 -137 217 -465q0 -547 -555 -547h-329zM313 133h115q111 0 189.5 21.5t129 69.5t74 126t23.5 191q0 219 -95.5 313t-299.5 94h-136v-815z" />
<glyph unicode="E" horiz-adv-x="937" d="M115 0v25q29 8 38 19t9 40v907q0 29 -9.5 41t-37.5 21v22h694q41 0 47 47h23v-211h-23q-8 41 -49 41h-494v-329h365q39 0 45 47h25v-211h-25q-4 23 -14.5 32t-32.5 9h-363v-367h506q41 0 47 45h23v-219h-23q-6 41 -49 41h-702z" />
<glyph unicode="F" horiz-adv-x="829" d="M115 0v25q29 8 38 19t9 40v907q0 29 -9.5 41t-37.5 21v22h647q39 0 45 47h24v-215h-24q-8 45 -47 45h-451v-336h305q35 0 45 54h25v-221h-25q-10 45 -47 45h-303v-410q0 -25 10.5 -38t38.5 -21v-25h-243z" />
<glyph unicode="G" horiz-adv-x="1034" d="M78 537q0 123 36 225t99 176t151.5 115t192.5 41q70 0 125 -17.5t95 -38t66.5 -38t43.5 -17.5q12 0 28 8l29 -12l-137 -199l-21 13q2 6 2 16q0 27 -18 54.5t-50 50t-75 37t-90 14.5q-70 0 -129 -32t-103 -88.5t-69 -134t-25 -171.5t25 -173t70 -135.5t106.5 -87 t134.5 -30.5q127 0 203 88v198h-195q-35 0 -45 -51h-22v219h22q6 -41 47 -41h386v-24q-45 -12 -46 -53v-232l27 -22q-147 -213 -387 -213q-104 0 -191.5 40.5t-150.5 114.5t-99 175.5t-36 224.5z" />
<glyph unicode="H" horiz-adv-x="1093" d="M115 0v25q29 8 38 19t9 40v907q0 29 -9.5 41t-37.5 21v22h245v-22q-29 -8 -38 -20.5t-9 -41.5v-375h467v375q0 29 -9 41t-38 21v22h246v-22q-29 -8 -38 -20.5t-9 -41.5v-907q0 -29 9 -40t38 -19v-25h-246v25q29 8 38 19t9 40v399h-467v-399q0 -29 9.5 -40t37.5 -19v-25 h-245z" />
<glyph unicode="I" horiz-adv-x="497" d="M121 0v25q31 8 41 19t10 40v907q0 29 -10 41t-41 21v22h254v-22q-31 -8 -41 -20.5t-10 -41.5v-907q0 -29 10 -40t41 -19v-25h-254z" />
<glyph unicode="J" horiz-adv-x="724" d="M-41 55l111 224l22 -11q-2 -6 -2 -18q0 -53 52.5 -93t131.5 -40q137 0 138 166v708q0 29 -6.5 41t-40.5 21v22h253v-22q-55 -12 -55 -62v-694q0 -158 -71.5 -236.5t-208.5 -78.5q-53 0 -94.5 12t-73 25.5t-55 25.5t-37.5 12t-41 -12z" />
<glyph unicode="K" horiz-adv-x="960" d="M111 0v25q31 8 41 19t10 40v907q0 29 -10.5 41t-40.5 21v22h254v-22q-29 -2 -40.5 -16.5t-11.5 -45.5v-403l371 416q16 20 16 30q0 16 -32 19v22h258v-22q-29 -4 -41.5 -16.5t-26.5 -28.5l-315 -355l360 -575q14 -23 28.5 -35t41.5 -18v-25h-262v25q18 8 26 13t8 15 q0 8 -6 19l-295 471l-131 -146v-313q0 -29 10.5 -40t41.5 -19v-25h-254z" />
<glyph unicode="L" horiz-adv-x="856" d="M119 0v25q31 8 40 19t9 40v907q0 29 -9 41t-40 21v22h254v-22q-53 -10 -54 -62v-858h467q41 0 48 45h22v-219h-22q-6 41 -48 41h-667z" />
<glyph unicode="M" horiz-adv-x="1255" d="M115 0v20q45 6 45 48v923q0 27 -8.5 41.5t-36.5 24.5v18h309v-18q-29 -4 -41 -18.5t-12 -30.5q0 -12 2 -17l258 -665l241 665q4 16 5 29q0 16 -10.5 23.5t-35.5 13.5v18h308v-18q-27 -10 -37 -23.5t-10 -42.5v-923q0 -45 51 -48v-20h-242v20q29 4 39 13.5t10 34.5v829 l-313 -883h-14l-330 869v-815q0 -41 51 -48v-20h-229z" />
<glyph unicode="N" horiz-adv-x="1085" d="M115 0v20q47 6 47 48v923q0 27 -8.5 41.5t-36.5 24.5v18h307v-18q-49 -12 -49 -45q0 -14 4 -21l412 -672v689q0 43 -52 49v18h230v-18q-45 -6 -45 -49v-940q0 -45 49 -48v-20h-244v20q41 6 41 33q0 6 -4 23l-471 782v-790q0 -23 10 -33t39 -15v-20h-229z" />
<glyph unicode="O" horiz-adv-x="1110" d="M78 537q0 123 36 225t99 176t150.5 115t191.5 41t191.5 -41t149.5 -115t98 -176.5t36 -224.5q0 -123 -36 -224.5t-98 -175.5t-149.5 -114.5t-191.5 -40.5t-191.5 40.5t-150.5 114.5t-99 175.5t-36 224.5zM236 539q0 -96 24.5 -174t67.5 -133.5t101 -86t126 -30.5 t126 30.5t101 86t67.5 133t24.5 174.5q0 94 -23.5 173t-66.5 135t-101 87t-128 31q-68 0 -126 -31t-101 -87t-67.5 -135t-24.5 -173z" />
<glyph unicode="P" horiz-adv-x="937" d="M119 0v25q29 8 38 19t9 40v907q0 29 -9.5 41t-37.5 21v22h432q166 0 258 -83t92 -222q0 -147 -94 -230t-275 -83h-217v-373q0 -29 9.5 -40t37.5 -19v-25h-243zM315 586h222q213 0 213 180q0 182 -230 182h-205v-362z" />
<glyph unicode="Q" horiz-adv-x="1110" d="M78 537q0 123 36 225t99 176t150.5 115t191.5 41t191.5 -41t149.5 -115t98 -176.5t36 -224.5q0 -287 -211 -465l58 -64q10 -12 20 -12q8 0 25 12l12 -12l-125 -125l-14 12q10 20 10 23q0 16 -10 26l-76 86q-78 -36 -160 -36h-4q-104 0 -191.5 40.5t-150.5 114.5 t-99 175.5t-36 224.5zM236 539q0 -96 24.5 -174t67.5 -135.5t98 -88t117 -30.5q43 0 84 10q-49 59 -90 97t-88 50q25 33 59 33q49 0 102.5 -32.5t118.5 -96.5q145 115 145 367q0 94 -23.5 173t-66.5 135t-101 87t-128 31q-68 0 -126 -31t-101 -87t-67.5 -135t-24.5 -173z " />
<glyph unicode="R" horiz-adv-x="978" d="M119 0v25q29 8 38 19t9 40v907q0 29 -9.5 41t-37.5 21v22h430q180 0 276.5 -81t96.5 -216q0 -111 -59.5 -187.5t-172.5 -109.5l225 -411q20 -39 64 -45v-25h-262v25q39 2 39 26q0 8 -6 19l-211 389h-222v-375q0 -29 9.5 -40t38.5 -19v-25h-246zM317 578h228 q104 0 162.5 50t58.5 140q0 88 -56.5 135t-164.5 47h-228v-372z" />
<glyph unicode="S" horiz-adv-x="923" d="M53 51l133 248l23 -12q-2 -8 -2 -25q0 -61 70.5 -104t193.5 -43q111 0 172.5 49t61.5 127q0 45 -14.5 74.5t-46.5 52t-81 39t-119 32.5q-90 23 -158.5 45.5t-114.5 56.5t-70.5 83t-24.5 123q0 63 25.5 117.5t74.5 94.5t119 62.5t160 22.5q72 0 126 -12.5t93 -27 t63.5 -26.5t36.5 -12q10 0 20.5 7t24.5 19l21 -12l-119 -217l-23 12q4 8 4 23q0 47 -67.5 84t-181.5 37q-113 0 -174.5 -47.5t-61.5 -118.5q0 -45 22.5 -71.5t64.5 -45t100.5 -33t132.5 -35.5q164 -45 239.5 -116.5t75.5 -194.5q0 -150 -102.5 -237.5t-282.5 -87.5 q-80 0 -140.5 13t-103.5 28.5t-69.5 29t-36.5 13.5q-16 0 -43 -25z" />
<glyph unicode="T" horiz-adv-x="796" d="M4 895v231h25q8 -31 19 -41t40 -10h625q29 0 41 10.5t20 40.5h23v-231h-23q-8 31 -20.5 41t-40.5 10h-236v-862q0 -29 9.5 -40t39.5 -19v-25h-252v25q31 8 40.5 19t9.5 40v862h-236q-29 0 -40 -10t-19 -41h-25z" />
<glyph unicode="U" horiz-adv-x="1071" d="M109 1053v22h253v-22q-31 -8 -41 -19.5t-10 -40.5v-604q0 -145 49.5 -212.5t178.5 -67.5q123 0 172 68.5t49 211.5v604q0 29 -9.5 40t-39.5 20v22h252v-22q-53 -10 -54 -60v-637q0 -374 -368 -374h-2q-193 0 -285 91t-92 283v637q0 29 -12.5 41.5t-40.5 18.5z" />
<glyph unicode="V" horiz-adv-x="962" d="M31 1053v22h264v-22q-29 0 -39 -8.5t-10 -32.5q0 -12 2 -21l239 -788l242 788q6 20 6 29q0 33 -43 33v22h240v-22q-53 -2 -70 -62l-276 -905q-4 -8 -4 -16.5v-14.5q0 -20 43 -26v-29h-287v29q39 6 39 22q0 12 -6 35l-277 905q-8 27 -21.5 40t-41.5 22z" />
<glyph unicode="W" horiz-adv-x="1411" d="M45 1051v24h256v-24q-29 0 -39 -8.5t-10 -30.5q0 -10 4 -23l178 -764l201 764q4 10 6 17.5t2 11.5q0 33 -45 33v24h254v-24q-29 0 -39 -7.5t-10 -31.5q0 -10 4 -23l182 -733l176 733q4 12 6.5 20.5t2.5 10.5q0 31 -46 31v24h226v-24q-23 -2 -37 -18.5t-23 -43.5 l-233 -903q-4 -20 -4 -33q0 -12 9 -16t32 -8v-29h-228v29q39 6 39 20q0 8 -6 37l-190 758l-199 -758q-4 -20 -4 -33q0 -12 9 -16t32 -8v-29h-252v29q39 6 39 20q0 8 -6 37l-223 903q-12 49 -64 62z" />
<glyph unicode="X" horiz-adv-x="901" d="M33 1053v22h272v-22q-23 0 -32 -4.5t-9 -20.5q0 -12 4 -18l187 -324l186 326q6 8 6 18q0 14 -13 17.5t-42 5.5v22h264v-22q-57 -10 -74 -41l-254 -445l301 -504q10 -20 23.5 -28t36.5 -10v-25h-273v25q25 4 35.5 8t10.5 20q0 6 -7 17l-209 354l-202 -352q-4 -8 -4 -17 q0 -31 45 -30h6v-25h-254v25q29 2 40 12t23 33l275 477l-283 469q-20 35 -59 37z" />
<glyph unicode="Y" horiz-adv-x="876" d="M0 1053v22h272v-22q-25 -2 -35 -6.5t-10 -20.5q0 -8 6 -16l220 -377l202 358q12 20 13 37q0 23 -50 25v22h265v-22q-29 -2 -44.5 -10.5t-27.5 -30.5l-293 -512v-416q0 -45 51 -59v-25h-250v25q31 10 38.5 20t7.5 39v408l-308 524q-10 18 -22 26.5t-35 10.5z" />
<glyph unicode="Z" horiz-adv-x="825" d="M51 913v209h25q6 -47 45 -47h661v-55l-514 -893h428q39 0 45 47h25v-215h-25q-6 41 -47 41h-639v39l525 913h-457q-23 0 -33 -8t-14 -31h-25z" />
<glyph unicode="[" horiz-adv-x="710" d="M166 -213v1288h463v-78h-310v-1132h310v-78h-463z" />
<glyph unicode="\" horiz-adv-x="569" d="M-41 1094h104l633 -1284h-106z" />
<glyph unicode="]" horiz-adv-x="710" d="M80 -135h309v1132h-309v78h463v-1288h-463v78z" />
<glyph unicode="^" horiz-adv-x="2048" d="M422 901l532 557h140l530 -557h-143l-457 455l-459 -455h-143z" />
<glyph unicode="_" horiz-adv-x="1024" d="M0 -383h1024v-100h-1024v100z" />
<glyph unicode="`" horiz-adv-x="1024" d="M229 1298q0 29 19.5 50.5t54.5 21.5q25 0 47.5 -15.5t48.5 -43.5l289 -299h-67l-330 205q-61 39 -62 81z" />
<glyph unicode="a" horiz-adv-x="817" d="M0 0v25q27 6 40 20t23 41l228 711q4 14 6 23t2 14q0 20 -37 24v25h281v-25q-35 -4 -35 -33q0 -10 6 -28l242 -711q10 -27 19 -42t38 -19v-25h-225v25q33 6 33 32v13.5t-5 15.5l-53 164h-323l-56 -164q-6 -18 -6 -27q0 -29 39 -34v-25h-217zM274 362h250l-127 383z" />
<glyph unicode="b" horiz-adv-x="872" d="M100 0v25q29 8 38 19t9 40v715q0 29 -9 40t-38 19v25h377q143 0 218 -61.5t75 -166.5q0 -133 -139 -192q157 -55 157 -207q0 -119 -78.5 -187.5t-220.5 -68.5h-389zM289 123h172q182 0 182 137q0 139 -197 139h-157v-276zM289 510h147q100 0 148.5 28.5t48.5 100.5 q0 74 -49 100.5t-150 26.5h-145v-256z" />
<glyph unicode="c" horiz-adv-x="882" d="M70 440q0 102 30.5 187.5t86 147t131 96t163.5 34.5q57 0 102.5 -14t80 -31.5t59.5 -32t43 -14.5q10 0 35 10l18 -14l-139 -182l-18 14q2 6 2 18q0 47 -51.5 85t-133.5 38q-57 0 -105 -24.5t-84 -69.5t-55.5 -107.5t-19.5 -138.5q0 -154 73.5 -247t194.5 -93 q43 0 79 13.5t61.5 33t40 43t14.5 46.5q0 6 -10 36l20 15l150 -183l-19 -14q-31 10 -39 10q-14 0 -35.5 -19.5t-57.5 -42t-86 -41.5t-122 -19q-90 0 -164.5 33.5t-129 95t-85 146.5t-30.5 185z" />
<glyph unicode="d" horiz-adv-x="935" d="M100 0v25q29 8 38 19t9 40v715q0 29 -9 40t-38 19v25h283q246 0 365.5 -102.5t119.5 -331.5q0 -449 -485 -449h-283zM289 123h82q92 0 158.5 16.5t108.5 53t62.5 98t20.5 151.5q0 158 -74 240t-209 82h-149v-641z" />
<glyph unicode="e" horiz-adv-x="851" d="M100 0v25q29 8 38 19t9 40v715q0 29 -9 40t-38 19v25h594q39 0 45 47h23v-207h-23q-4 23 -14 32t-33 9h-403v-248h293q39 0 45 47h22v-205h-22q-4 23 -14.5 31t-32.5 8h-291v-274h413q41 0 48 47h22v-209h-22q-4 23 -14.5 31t-33.5 8h-602z" />
<glyph unicode="f" horiz-adv-x="761" d="M100 0v25q29 8 38 19t9 40v715q0 29 -9 40t-38 19v25h553q41 0 47 47h23v-207h-23q-4 23 -14 32t-33 9h-364v-250h237q41 0 47 47h23v-211h-23q-4 27 -14 36t-35 9h-235v-311q0 -45 51 -59v-25h-240z" />
<glyph unicode="g" horiz-adv-x="890" d="M70 440q0 102 30.5 187.5t86 147t131 96t163.5 34.5q57 0 102.5 -14t80 -31.5t59.5 -32t43 -14.5q10 0 35 10l18 -14l-139 -182l-18 14q2 6 2 18q0 47 -51.5 85t-133.5 38q-57 0 -105 -24.5t-84 -69.5t-55.5 -107.5t-19.5 -138.5q0 -154 73.5 -247t200.5 -93q96 0 162 62 v155h-147q-37 0 -47 -51h-23v211h23q6 -43 49 -43h328v-24q-45 -12 -46 -52v-180l29 -20q-133 -180 -338 -180q-90 0 -164.5 33.5t-129 95t-85 146.5t-30.5 185z" />
<glyph unicode="h" horiz-adv-x="958" d="M100 0v25q29 8 38 19t9 40v715q0 29 -9 40t-38 19v25h236v-25q-29 -8 -38 -19.5t-9 -39.5v-283h381v283q0 29 -10.5 40t-38.5 19v25h237v-25q-29 -8 -38 -19.5t-9 -39.5v-715q0 -29 9 -40t38 -19v-25h-237v25q29 8 39 19t10 40v307h-381v-307q0 -29 9 -40t38 -19v-25 h-236z" />
<glyph unicode="i" horiz-adv-x="448" d="M104 0v25q29 8 39.5 19t10.5 40v715q0 29 -10.5 40t-39.5 19v25h240v-25q-29 -8 -39 -19.5t-10 -39.5v-715q0 -29 10 -40t39 -19v-25h-240z" />
<glyph unicode="j" horiz-adv-x="645" d="M-31 41l107 209l22 -10q0 -4 -1 -8.5t-1 -8.5q0 -47 41 -80.5t107 -33.5q111 0 110 124v566q0 33 -8 43t-49 16v25h254v-25q-55 -12 -55 -59v-566q0 -127 -61.5 -189t-178.5 -62q-45 0 -80 9t-62.5 21.5t-47 21.5t-33.5 9q-8 0 -17.5 -4t-23.5 -8z" />
<glyph unicode="k" horiz-adv-x="868" d="M98 0v25q29 8 39 19t10 40v715q0 29 -10 40t-39 19v25h238v-25q-29 -8 -38 -19.5t-9 -39.5v-295l284 307q16 20 17 31q0 14 -33 16v25h256v-25q-29 -4 -42 -16.5t-30 -28.5l-258 -272l305 -463q14 -23 27.5 -35t42.5 -18v-25h-256v25q18 8 26.5 13t8.5 15q0 8 -6 19 l-242 368l-100 -106v-250q0 -29 9 -40t38 -19v-25h-238z" />
<glyph unicode="l" horiz-adv-x="772" d="M106 0v25q29 8 39.5 19t10.5 40v715q0 29 -10.5 40t-39.5 19v25h238v-25q-29 -8 -38 -19.5t-9 -39.5v-676h381q39 0 45 47h25v-209h-25q-4 23 -14.5 31t-32.5 8h-570z" />
<glyph unicode="m" horiz-adv-x="1097" d="M100 0v20q47 6 47 48v731q0 27 -8 40t-37 23v21h279v-21q-25 -6 -37 -20.5t-12 -30.5q0 -8 2 -12l215 -541l205 541q6 12 6 26q0 16 -11.5 23.5t-35.5 13.5v21h284v-21q-27 -10 -37 -22.5t-10 -40.5v-731q0 -45 51 -48v-20h-233v20q29 4 39 13.5t10 34.5v612l-260 -666 h-16l-271 666v-612q0 -23 10.5 -33t38.5 -15v-20h-219z" />
<glyph unicode="n" horiz-adv-x="935" d="M96 862v21h297v-21q-51 -8 -51 -43q0 -12 6 -20l318 -510v526q0 41 -52 47v21h222v-21q-47 -6 -48 -49v-745q0 -45 52 -48v-20h-224v20q39 6 39 29q0 8 -2 14l-383 615v-610q0 -41 49 -48v-20h-219v20q47 6 47 50v745q0 45 -51 47z" />
<glyph unicode="o" horiz-adv-x="958" d="M70 440q0 100 30.5 185.5t85 147t129 96t164.5 34.5t165 -34.5t129 -96t85 -146.5t31 -186q0 -100 -31 -185t-85 -146.5t-129 -95t-165 -33.5t-164.5 33.5t-129 95t-85 145.5t-30.5 186zM215 442q0 -78 19.5 -140t55.5 -106t84 -69t105 -25t105.5 25t83 69t54 106.5 t19.5 139.5q0 152 -72.5 246t-189.5 94q-57 0 -105 -24.5t-84 -69.5t-55.5 -107.5t-19.5 -138.5z" />
<glyph unicode="p" horiz-adv-x="841" d="M100 0v25q29 8 38 19t9 40v715q0 29 -9 40t-38 19v25h377q143 0 221 -67.5t78 -182.5q0 -117 -79 -187.5t-210 -70.5h-198v-291q0 -29 9 -40t38 -19v-25h-236zM289 489h170q174 0 174 138q0 74 -46 107.5t-143 33.5h-155v-279z" />
<glyph unicode="q" horiz-adv-x="958" d="M70 440q0 100 30.5 185.5t85 147t129 96t164.5 34.5t165 -34.5t129 -96t85 -146.5t31 -186q0 -242 -172 -383l49 -55q10 -10 20 -10q14 0 25 8l12 -12l-133 -115l-14 12q10 20 10 23q0 16 -8 26l-60 70q-71 -24 -134 -24h-5q-90 0 -164.5 33.5t-129 95t-85 146.5 t-30.5 185zM215 442q0 -78 20.5 -140t55.5 -106t81 -69t97 -25q22 1 57 7q-37 43 -69.5 69.5t-71.5 34.5q29 35 74 35q35 0 74.5 -21.5t91.5 -70.5q116 93 116 283q0 79 -19.5 141.5t-54 107.5t-82.5 69.5t-106 24.5q-57 0 -105 -24.5t-84 -69.5t-55.5 -107.5t-19.5 -138.5z " />
<glyph unicode="r" horiz-adv-x="886" d="M100 0v25q29 8 38 19t9 40v715q0 29 -9 40t-38 19v25h377q154 0 235 -67.5t81 -182.5q0 -172 -189 -246l182 -317q12 -20 26.5 -30.5t37.5 -14.5v-25h-246v25q39 2 39 26q0 8 -6 19l-172 305h-176v-291q0 -29 9 -40t38 -19v-25h-236zM289 483h180q184 0 184 142 q0 76 -49 109.5t-149 33.5h-166v-285z" />
<glyph unicode="s" horiz-adv-x="847" d="M63 35l132 227l20 -14q-4 -16 -4 -25q0 -49 58.5 -85t154.5 -36q92 0 144.5 36t52.5 100q0 59 -42 90.5t-133 54.5q-78 20 -142 38.5t-112.5 47.5t-75 72t-26.5 114q0 51 22.5 96.5t63.5 79t101.5 53t134.5 19.5q66 0 113.5 -10t80.5 -22.5t53.5 -22.5t30.5 -10 q14 0 45 26l21 -12l-115 -201l-20 13q4 12 4 20q0 41 -56.5 72.5t-148.5 31.5q-96 0 -145.5 -31.5t-49.5 -90.5q0 -37 18.5 -59.5t53.5 -38t85 -29t116 -29.5q133 -35 197.5 -96.5t64.5 -165.5q0 -123 -88 -195.5t-248 -72.5q-66 0 -117 10t-87 23.5t-59.5 23.5t-33.5 10 q-16 0 -43 -24z" />
<glyph unicode="t" horiz-adv-x="681" d="M0 711v221h25q8 -33 19 -41t40 -8h514q29 0 40 9t19 40h25v-221h-25q-8 31 -19 41t-40 10h-184v-678q0 -29 10 -40t41 -19v-25h-246v25q31 8 42 19t11 40v678h-188q-29 0 -40 -10.5t-19 -40.5h-25z" />
<glyph unicode="u" horiz-adv-x="929" d="M90 858v25h244v-25q-31 -8 -41 -19.5t-10 -39.5v-469q0 -57 7 -100.5t27.5 -73t56.5 -44t93 -14.5t92 15.5t54.5 44t25.5 72.5t6 100v469q0 29 -11 41t-40 18v25h244v-25q-31 -8 -41.5 -19.5t-10.5 -39.5v-486q0 -168 -75.5 -249.5t-243.5 -81.5q-166 0 -245 74.5 t-79 234.5v508q0 29 -12 41t-41 18z" />
<glyph unicode="v" horiz-adv-x="792" d="M12 858v25h226v-25q-33 -6 -33 -33v-12t4 -16l199 -623l194 623q6 14 6 24q0 31 -39 37v25h217v-25q-27 -6 -40 -20.5t-23 -40.5l-227 -711q-4 -14 -6.5 -23.5t-2.5 -11.5q0 -25 37 -26v-25h-254v25q33 0 33 32v13.5t-4 15.5l-231 711q-10 29 -19.5 43t-36.5 18z" />
<glyph unicode="w" horiz-adv-x="1171" d="M18 858v25h244v-25q-29 0 -39 -8t-10 -33q0 -14 2 -20l147 -598l166 598q6 25 7 28q0 33 -43 33v25h233v-25q-29 0 -39 -8t-10 -33q0 -12 2 -20l151 -574l148 574q6 20 6 28q0 33 -43 33v25h211v-25q-41 -6 -57 -61l-193 -711q-4 -20 -4 -31q0 -20 43 -26v-29h-227v29 q39 6 39 22q0 10 -7 35l-149 569l-160 -569q-4 -10 -4 -17.5v-13.5q0 -20 43 -26v-29h-244v29q39 6 39 22q0 10 -6 35l-184 711q-12 49 -62 61z" />
<glyph unicode="x" horiz-adv-x="739" d="M-4 858v25h260v-25q-23 0 -33 -4t-10 -20q0 -12 4 -19l152 -242l143 244q6 8 6 19q0 20 -55 22v25h252v-25q-51 -8 -72 -41l-209 -350l246 -404q12 -18 25.5 -27t35.5 -11v-25h-262v25q25 4 35 8t10 20q0 6 -6 17l-168 270l-157 -268q-4 -8 -5 -17q0 -30 45 -30h3h6v-25 h-242v25q29 2 40 12t23 33l226 381l-234 370q-10 18 -23.5 26.5t-35.5 10.5z" />
<glyph unicode="y" horiz-adv-x="716" d="M-23 858v25h261v-25q-25 -2 -35 -6t-10 -21q0 -8 6 -16l174 -280l168 276q6 8 6 20q0 14 -10.5 18.5t-38.5 8.5v25h252v-25q-29 -2 -44.5 -10t-27.5 -31l-248 -405v-328q0 -45 51 -59v-25h-235v25q31 10 38 20t7 39v328l-254 409q-10 16 -22.5 24.5t-37.5 12.5z" />
<glyph unicode="z" horiz-adv-x="722" d="M41 729v199h22q6 -45 48 -45h561v-54l-428 -710h342q41 0 47 45h22v-205h-22q-6 41 -47 41h-543v41l436 727h-366q-23 0 -34 -8t-16 -31h-22z" />
<glyph unicode="{" horiz-adv-x="1024" d="M174 477v109q12 0 23.5 -1t21.5 -1q139 0 195.5 64.5t56.5 215.5v242q0 104 13.5 175t50 115t102 62.5t170.5 18.5h47v-107h-37q-72 0 -115 -13.5t-67.5 -43t-32.5 -77.5t-8 -120v-242q0 -74 -8 -131t-29.5 -98t-59.5 -68.5t-100 -46.5q61 -18 99.5 -45.5t60 -69.5 t29.5 -98.5t8 -130.5v-241q0 -72 8 -120t30.5 -78t65.5 -43t111 -13q10 0 21.5 1t23.5 1v-107h-47q-104 0 -170 18.5t-102.5 61.5t-50 113.5t-13.5 175.5v244q0 152 -56.5 216t-195.5 64q-10 0 -21.5 -1t-23.5 -1z" />
<glyph unicode="|" horiz-adv-x="1024" d="M459 -483v2048h108v-2048h-108z" />
<glyph unicode="}" horiz-adv-x="1024" d="M172 -307h39q70 0 113 12t67.5 41t32.5 78t8 121v241q0 74 7 130.5t28.5 98.5t60.5 69.5t101 45.5q-61 18 -100.5 46t-61 69t-28.5 98.5t-7 130.5v242q0 72 -8 121t-30.5 79t-65.5 43t-111 13q-10 0 -21.5 -1t-23.5 -1v107h47q104 0 170 -18.5t102.5 -62.5t50 -115 t13.5 -175v-242q0 -152 56.5 -216t195.5 -64q10 0 21.5 1t23.5 1v-109q-12 0 -23.5 1t-21.5 1q-139 0 -195.5 -64.5t-56.5 -215.5v-244q0 -104 -13.5 -175t-50 -114t-102 -61.5t-170.5 -18.5h-47v107z" />
<glyph unicode="~" horiz-adv-x="1705" d="M178 471v113q211 145 387 145q84 0 152.5 -21.5t136.5 -45.5q74 -27 143.5 -49.5t145.5 -22.5q92 0 185 41t202 119v-113q-201 -143 -387 -143q-84 0 -153.5 22.5t-135.5 44.5q-72 27 -141.5 48.5t-147.5 21.5q-92 0 -184 -41t-203 -119z" />
<glyph unicode="&#xa1;" horiz-adv-x="552" d="M145 0v25q35 8 41.5 19t8.5 40l45 598v10q0 20 -7.5 30.5t-29.5 18.5v25h145v-25q-23 -8 -30 -18t-7 -31v-10l45 -598q2 -29 9.5 -40t42.5 -19v-25h-263zM176 995q0 41 30 71t70 30q41 0 70 -30t29 -71t-29 -69.5t-70 -28.5q-43 0 -71.5 27.5t-28.5 70.5z" />
<glyph unicode="&#xa2;" d="M141 430q0 96 30 178t80 140.5t118.5 91t146.5 32.5q16 0 34.5 -2t41.5 -6l74 271h77l-81 -289q45 -20 74.5 -40t51.5 -20q10 0 35 11l19 -15l-119 -180l-21 12q2 6 3 21q0 29 -20.5 53.5t-55.5 40.5l-170 -606q27 -6 46 -8t32 -2q37 0 69.5 12t57 31.5t38 43t13.5 44.5 q0 6 -10 37l18 16l139 -188l-18 -17q-31 10 -39 10q-12 0 -32.5 -17t-53.5 -38.5t-82 -39t-119 -17.5q-18 0 -41.5 3t-52.5 11l-84 -307h-78l92 332q-100 55 -156.5 160.5t-56.5 240.5zM279 432q0 -88 29.5 -156.5t84.5 -115.5l166 590q-12 2 -19.5 2h-11.5q-53 0 -99 -23.5 t-80 -65.5t-52 -100.5t-18 -130.5z" />
<glyph unicode="&#xa3;" d="M166 -39v180q86 66 127 126.5t41 138.5q0 41 -17 102h-151v94h129q-35 115 -35 186q0 135 90 220.5t248 85.5q72 0 128 -20.5t112 -67.5q35 -29 53 -52.5t35 -23.5q12 0 35 12l16 -16l-186 -187l-17 17q6 14 10 26.5t4 24.5q0 27 -12 54.5t-36.5 51t-59.5 39t-80 15.5 q-92 0 -141 -47.5t-49 -133.5q0 -37 10 -82t26 -102h195v-94h-174q4 -29 6 -47.5t2 -32.5q0 -47 -11 -84t-33.5 -70.5t-56.5 -66.5t-79 -72h559q29 0 41 9.5t20 37.5h23v-221h-23q-6 25 -17 32t-38 7h-614q-27 0 -38 -7t-18 -32h-24z" />
<glyph unicode="&#xa4;" d="M37 399l29 76h104q0 16 -1 30.5t-1 31.5q0 23 1 44t3 44h-135l29 75h116q35 180 144.5 287t279.5 107q70 0 124 -17.5t94 -38t68 -38t48 -17.5q16 0 35 8l18 -12l-137 -195l-20 13q2 6 2 16q0 45 -25 75t-60.5 47t-75.5 24.5t-73 7.5q-109 0 -176.5 -72t-93.5 -195h471 l-29 -75h-452q-2 -20 -3.5 -42t-1.5 -44q0 -16 1.5 -31.5t3.5 -32.5h399l-29 -76h-364q25 -133 94.5 -209.5t179.5 -76.5q61 0 107.5 18.5t77 44t45 54t14.5 51.5q0 14 -8 36l18 15l160 -195l-19 -16q-27 10 -36 10q-18 0 -38 -17.5t-48 -39.5q-111 -92 -273 -92 q-86 0 -157.5 29.5t-126 85t-91 132t-51.5 170.5h-141z" />
<glyph unicode="&#xa5;" horiz-adv-x="962" d="M43 1053v22h268v-22q-25 -2 -34 -6.5t-9 -20.5q0 -10 4 -16l220 -377l202 358q14 23 15 37q0 23 -50 25v22h259v-22q-29 -2 -44.5 -10.5t-27.5 -30.5l-162 -285h203v-76h-248l-86 -151h334v-76h-334v-340q0 -45 51 -59v-25h-239v25q31 10 38 20t7 39v340h-336v76h329 l-90 151h-239v76h196l-168 289q-10 18 -23 25.5t-36 11.5z" />
<glyph unicode="&#xa6;" horiz-adv-x="1024" d="M459 -350v758h108v-758h-108zM459 674v758h108v-758h-108z" />
<glyph unicode="&#xa7;" horiz-adv-x="1024" d="M139 489q0 82 43 128.5t140 70.5q-49 31 -75 79t-26 107q0 100 75 160t216 60q70 0 121 -16.5t86 -35t56.5 -35t33.5 -16.5t39 10l16 -16l-166 -158l-16 19l10 20t4 17q0 12 -13 30.5t-39 34t-61.5 26.5t-78.5 11q-68 0 -106 -29.5t-38 -74.5q0 -33 18.5 -57.5t51.5 -45 t80 -41t106 -45.5q68 -29 118 -57.5t84 -59t50.5 -67.5t16.5 -82q0 -82 -43 -127t-140 -70q111 -74 111 -190q0 -102 -75.5 -163.5t-209.5 -61.5q-76 0 -131 16t-94 34.5t-63.5 35t-36.5 16.5q-14 0 -41 -12l-17 16l168 164l19 -16q-16 -29 -17 -39q0 -12 15.5 -30.5t44 -34 t67.5 -27t88 -11.5q70 0 106 29t36 78q0 35 -17.5 59.5t-51.5 44t-83 40t-112 48.5q-68 31 -118 57.5t-84 57.5t-50.5 66.5t-16.5 82.5zM258 524q0 -47 27.5 -75.5t79.5 -57.5q182 -100 276 -100q59 0 92 26.5t33 73.5q0 45 -27.5 76t-81.5 59q-88 47 -152.5 74t-117.5 27 q-61 0 -95 -28t-34 -75z" />
<glyph unicode="&#xa8;" horiz-adv-x="1024" d="M223 1165q0 41 29 71t70 30t70.5 -30t29.5 -71q0 -43 -30 -70.5t-70 -27.5q-41 0 -70 27.5t-29 70.5zM604 1165q0 41 29 71t69 30q41 0 71 -30t30 -71q0 -43 -30 -70.5t-71 -27.5t-69.5 27.5t-28.5 70.5z" />
<glyph unicode="&#xa9;" horiz-adv-x="1705" d="M121 723q0 147 56 280.5t163 241.5q102 104 232 157.5t280 53.5t284 -55t238 -160q104 -104 157.5 -237.5t53.5 -280.5q0 -152 -53 -282t-158 -232q-109 -106 -243 -162.5t-279 -56.5t-277.5 55t-238.5 162q-104 104 -159.5 236t-55.5 280zM201 723q0 -129 49 -247 t143 -212t212 -143t247 -49t249 49t218 145q92 90 139 206t47 251q0 133 -48 251t-140 210q-94 94 -212 143t-253 49q-133 0 -249 -48t-208 -140q-96 -98 -145 -217t-49 -248zM469 727q0 104 28.5 187t81 141.5t124 89.5t157.5 31q135 0 226.5 -72t103.5 -189h-117 q-18 80 -74.5 124t-142.5 44q-121 0 -189.5 -93t-68.5 -269q0 -170 69.5 -262t188.5 -92q90 0 151.5 50t77.5 138h115q-6 -61 -33.5 -113.5t-73.5 -90.5t-108.5 -59.5t-134.5 -21.5q-174 0 -277.5 120t-103.5 337z" />
<glyph unicode="&#xaa;" horiz-adv-x="538" d="M0 430v14q33 8 41 37l152 426q4 10 4 15.5v7.5q0 14 -25 14v17h186v-17q-23 0 -22 -18q0 -10 4 -19l160 -426q6 -16 12 -24t25 -13v-14h-150v14q23 2 23 21q0 10 -2 16l-35 99h-215l-37 -99q-4 -12 -4 -16q0 -16 26 -21v-14h-143zM180 647h166l-84 230z" />
<glyph unicode="&#xab;" horiz-adv-x="823" d="M84 440l235 301h138l-236 -301l236 -301h-138zM391 440l236 301h135l-236 -301l236 -301h-135z" />
<glyph unicode="&#xac;" horiz-adv-x="1705" d="M254 758v100h1198v-502h-96v402h-1102z" />
<glyph unicode="&#xad;" horiz-adv-x="671" d="M100 471v135h469v-135h-469z" />
<glyph unicode="&#xae;" horiz-adv-x="1705" d="M121 723q0 145 56 279.5t163 242.5q102 104 232 157.5t280 53.5q152 0 285 -54t237 -161q104 -104 157.5 -237.5t53.5 -280.5q0 -152 -53 -282t-158 -232q-109 -106 -243 -162.5t-279 -56.5q-147 0 -279.5 55t-236.5 162q-104 104 -159.5 236t-55.5 280zM201 723 q0 -129 49 -247t143 -212t212 -143t247 -49t249 49t218 145q92 90 139 205t47 250t-47 253t-139 210q-94 94 -213 143t-254 49q-133 0 -248 -48t-207 -140q-96 -98 -146 -217t-50 -248zM565 313v844h309q176 0 262.5 -55t86.5 -178q0 -88 -53.5 -148.5t-145.5 -73.5 l188 -389h-145l-178 371h-197v-371h-127zM692 768h158q125 0 183.5 30.5t58.5 116.5t-58.5 121t-183.5 35h-158v-303z" />
<glyph unicode="&#xaf;" horiz-adv-x="1024" d="M254 1104v125h516v-125h-516z" />
<glyph unicode="&#xb0;" horiz-adv-x="673" d="M59 1174q0 57 21.5 108t59.5 89t89.5 59.5t108.5 21.5t107.5 -21.5t88 -59.5t59 -89t21.5 -108t-21.5 -107.5t-59 -88.5t-89 -60.5t-108.5 -22.5q-59 0 -109.5 21.5t-87.5 59.5t-58.5 88t-21.5 110zM129 1174q0 -43 16.5 -81t45 -66t66.5 -44t81 -16t81 16t65.5 44t44 66 t16.5 81t-16.5 80.5t-44 66.5t-65.5 45t-81 16t-81 -16t-66.5 -45t-45 -66.5t-16.5 -80.5z" />
<glyph unicode="&#xb1;" horiz-adv-x="1705" d="M254 51v99h1198v-99h-1198zM254 723v98h551v348h98v-348h549v-98h-549v-348h-98v348h-551z" />
<glyph unicode="&#xb2;" horiz-adv-x="665" d="M68 967l10 10q14 -6 24 -6t23.5 11t36.5 32q41 37 82 54t100 17q90 0 148.5 -49t58.5 -123q0 -45 -17.5 -77.5t-47 -60t-70.5 -55.5t-88 -63q-59 -43 -92 -76.5t-37 -68.5h327q18 0 26.5 5t12.5 22h17v-131h-17q-8 23 -37 22h-393q-31 0 -35 -22h-16v14q0 78 31.5 137 t101.5 119q47 39 89 67.5t75 54t51.5 52.5t18.5 61q0 96 -119 97q-33 0 -59.5 -11.5t-45 -28t-29 -36t-10.5 -35.5q0 -6 2.5 -13t6.5 -18l-11 -10z" />
<glyph unicode="&#xb3;" horiz-adv-x="665" d="M43 489l70 134l16 -7q-2 -4 -2 -10q0 -18 16.5 -37.5t43 -35t61.5 -25.5t71 -10q70 0 112 32.5t42 85.5q0 55 -43 89t-121 34q-29 0 -44 -5t-25 -27h-15v137h15q10 -23 23 -27t42 -4q150 0 150 100q0 41 -36 69t-97 28q-68 0 -110 -31t-42 -61q0 -12 6 -27l-10 -10 l-113 106l13 10q10 -4 14 -4h6q16 0 35.5 14.5t46.5 32t64.5 31.5t91.5 14q104 0 165.5 -49t61.5 -123q0 -82 -96 -137q119 -51 118 -158q0 -86 -67.5 -142t-186.5 -56q-59 0 -101 11t-69.5 25.5t-44 26t-24.5 11.5t-23 -11z" />
<glyph unicode="&#xb4;" horiz-adv-x="1024" d="M336 1012l289 299q27 29 49 44t47 15q35 0 54.5 -21.5t19.5 -50.5q0 -43 -62 -81l-330 -205h-67z" />
<glyph unicode="&#xb6;" horiz-adv-x="1024" d="M84 1130q0 76 27.5 140.5t79 110.5t124 72t162.5 26h463v-70h-127v-1409h-82v1409h-188v-1409h-82v782q-178 8 -277.5 103.5t-99.5 244.5z" />
<glyph unicode="&#xb7;" horiz-adv-x="505" d="M154 537q0 41 28.5 69.5t69.5 28.5t70.5 -27.5t29.5 -70.5q0 -41 -29.5 -70t-70.5 -29t-69.5 29t-28.5 70z" />
<glyph unicode="&#xb8;" horiz-adv-x="1024" d="M274 -371l35 78q70 -41 128.5 -56.5t94.5 -15.5q121 0 121 93q0 41 -28.5 65.5t-81.5 24.5q-8 0 -23.5 -2t-40.5 -6v190h64v-113q45 6 69 7q80 0 127 -45.5t47 -118.5q0 -80 -57 -128t-162 -48q-70 0 -140.5 21.5t-152.5 53.5z" />
<glyph unicode="&#xb9;" horiz-adv-x="665" d="M205 877v122h16q6 -16 21 -16q8 0 24 4l35 14v23q0 18 -6 25.5t-25 11.5v14h162v-14q-20 -4 -25.5 -11.5t-5.5 -25.5v-543q0 -18 5.5 -25t25.5 -12v-14h-162v14q18 4 24.5 11.5t6.5 25.5v443l-47 -17q-29 -8 -33 -30h-16z" />
<glyph unicode="&#xba;" horiz-adv-x="632" d="M45 694q0 61 20.5 112.5t56.5 88.5t85 57.5t108 20.5q121 0 196 -78t75 -201t-75 -199.5t-196 -76.5q-59 0 -108 20.5t-85 57t-56.5 87t-20.5 111.5zM141 696q0 -92 50.5 -148t123.5 -56q76 0 125 56t49 148q0 90 -48 146.5t-126 56.5q-74 0 -124 -56.5t-50 -146.5z" />
<glyph unicode="&#xbb;" horiz-adv-x="823" d="M61 139l236 301l-236 301h136l235 -301l-235 -301h-136zM367 139l235 301l-235 301h135l235 -301l-235 -301h-135z" />
<glyph unicode="&#xbc;" horiz-adv-x="1607" d="M197 889v115h14q6 -14 20 -15q6 0 11.5 1t11.5 3l33 13v22q0 16 -5.5 23.5t-23.5 11.5v12h154v-12q-18 -4 -23.5 -11.5t-5.5 -23.5v-508q0 -16 5 -22t24 -11v-14h-154v14q18 4 23.5 10.5t5.5 22.5v414l-45 -16q-14 -4 -20.5 -9.5t-10.5 -19.5h-14zM301 -18l895 1112h115 l-897 -1112h-113zM1026 92v88l266 373q8 10 8 18q0 12 -16 19v12h193v-12q-18 -4 -23.5 -11.5t-5.5 -23.5v-360h35q23 0 29 6t10 20h14v-129h-14q-4 16 -12.5 21.5t-26.5 5.5h-35v-72q0 -16 5 -22.5t24 -10.5v-14h-152v14q18 4 23.5 10.5t5.5 22.5v72h-275q-18 0 -25 -5 t-12 -22h-16zM1124 193h232l12 346z" />
<glyph unicode="&#xbd;" horiz-adv-x="1607" d="M197 889v115h14q6 -14 20 -15q6 0 11.5 1t11.5 3l33 13v22q0 16 -5.5 23.5t-23.5 11.5v12h154v-12q-18 -4 -23.5 -11.5t-5.5 -23.5v-508q0 -16 5 -22t24 -11v-14h-154v14q18 4 23.5 10.5t5.5 22.5v414l-45 -16q-14 -4 -20.5 -9.5t-10.5 -19.5h-14zM301 -18l895 1112h115 l-897 -1112h-113zM1036 502l13 8q12 -6 22 -6t21.5 11t33.5 30q41 35 80 51t94 16q86 0 141.5 -46t55.5 -115q0 -41 -16.5 -72t-44 -56.5t-67.5 -51t-85 -58.5q-55 -41 -86 -72.5t-35 -64.5h312q18 0 25 5t11 21h17v-125h-17q-4 23 -34 23h-375q-29 0 -33 -23h-16v15 q0 74 30.5 129t96.5 110q45 37 85 65t70.5 51.5t49 47t18.5 56.5q0 90 -115 90q-59 0 -97 -36t-38 -67q0 -14 8 -28l-10 -11z" />
<glyph unicode="&#xbe;" horiz-adv-x="1607" d="M41 528l68 123l14 -4q-2 -4 -2 -8q0 -18 15.5 -35.5t41 -33t58 -24.5t69.5 -9q66 0 106 30.5t40 79.5q0 53 -40 84t-116 31q-29 0 -43 -5t-23 -26h-14v127h14q10 -18 22.5 -23.5t39.5 -5.5q143 0 143 97q0 35 -33.5 61.5t-93.5 26.5q-66 0 -105.5 -29t-39.5 -57 q0 -10 8 -25l-12 -8l-107 98l10 8q10 -2 14.5 -2h6.5q14 0 32.5 13.5t45 29t62.5 28.5t87 13q98 0 156.5 -45t58.5 -112q0 -80 -90 -131q113 -45 113 -146q0 -80 -64.5 -133t-177.5 -53q-57 0 -97 11t-65.5 23.5t-42 23.5t-24.5 11q-6 0 -23 -10zM301 -18l895 1112h115 l-897 -1112h-113zM1026 92v88l266 373q8 10 8 18q0 12 -16 19v12h193v-12q-18 -4 -23.5 -11.5t-5.5 -23.5v-360h35q23 0 29 6t10 20h14v-129h-14q-4 16 -12.5 21.5t-26.5 5.5h-35v-72q0 -16 5 -22.5t24 -10.5v-14h-152v14q18 4 23.5 10.5t5.5 22.5v72h-275q-18 0 -25 -5 t-12 -22h-16zM1124 193h232l12 346z" />
<glyph unicode="&#xbf;" horiz-adv-x="817" d="M74 248q0 51 15 90t40 70.5t53.5 60.5t55.5 61q29 35 44 73t15 73q0 29 -8 40t-41 19v25h225v-25q-27 -2 -36 -13t-13 -32.5t-8 -55.5t-21 -79q-16 -43 -43.5 -79t-55.5 -70.5t-48.5 -70.5t-20.5 -79q0 -70 39 -108.5t105 -38.5q72 0 108.5 29.5t36.5 58.5q0 14 -14 47 l18 14l160 -170l-16 -16q-25 10 -31 10q-16 0 -37 -16.5t-51.5 -35t-74.5 -34.5t-105 -16q-66 0 -120.5 20t-92 55t-58 84t-20.5 109zM266 995q0 41 29 70t70 29t70.5 -29t29.5 -70t-29.5 -70.5t-70.5 -29.5q-43 0 -71 28.5t-28 71.5z" />
<glyph unicode="&#xc0;" horiz-adv-x="962" d="M8 0v25q49 12 64 61l276 905q8 27 8 37q0 20 -37 25v22h310v-22q-35 -4 -35 -31q0 -10 6 -31l295 -905q10 -29 19.5 -43t37.5 -18v-25h-243v25q35 6 34 32q0 12 -6 29l-71 225h-392l-67 -225q-2 -6 -4 -13t-2 -14q0 -29 39 -34v-25h-232zM200 1491q0 29 19.5 50.5 t54.5 21.5q25 0 47.5 -15.5t48.5 -43.5l289 -299h-67l-330 205q-61 39 -62 81zM315 440h308l-158 492z" />
<glyph unicode="&#xc1;" horiz-adv-x="962" d="M8 0v25q49 12 64 61l276 905q8 27 8 37q0 20 -37 25v22h310v-22q-35 -4 -35 -31q0 -10 6 -31l295 -905q10 -29 19.5 -43t37.5 -18v-25h-243v25q35 6 34 32q0 12 -6 29l-71 225h-392l-67 -225q-2 -6 -4 -13t-2 -14q0 -29 39 -34v-25h-232zM307 1205l289 299q27 29 49 44 t47 15q35 0 54.5 -21.5t19.5 -50.5q0 -43 -62 -81l-330 -205h-67zM315 440h308l-158 492z" />
<glyph unicode="&#xc2;" horiz-adv-x="962" d="M8 0v25q49 12 64 61l276 905q8 27 8 37q0 20 -37 25v22h310v-22q-35 -4 -35 -31q0 -10 6 -31l295 -905q10 -29 19.5 -43t37.5 -18v-25h-243v25q35 6 34 32q0 12 -6 29l-71 225h-392l-67 -225q-2 -6 -4 -13t-2 -14q0 -29 39 -34v-25h-232zM192 1205l232 348h118l232 -348 h-58l-233 209l-233 -209h-58zM315 440h308l-158 492z" />
<glyph unicode="&#xc3;" horiz-adv-x="962" d="M8 0v25q49 12 64 61l276 905q8 27 8 37q0 20 -37 25v22h310v-22q-35 -4 -35 -31q0 -10 6 -31l295 -905q10 -29 19.5 -43t37.5 -18v-25h-243v25q35 6 34 32q0 12 -6 29l-71 225h-392l-67 -225q-2 -6 -4 -13t-2 -14q0 -29 39 -34v-25h-232zM196 1252q37 211 197 211 q33 0 63 -8l111 -29q41 -10 55 -10q39 0 58.5 19.5t35.5 66.5h54q-39 -205 -195 -205q-29 0 -74 10l-108 29q-25 6 -49 6q-41 0 -60.5 -20.5t-36.5 -69.5h-51zM315 440h308l-158 492z" />
<glyph unicode="&#xc4;" horiz-adv-x="962" d="M8 0v25q49 12 64 61l276 905q8 27 8 37q0 20 -37 25v22h310v-22q-35 -4 -35 -31q0 -10 6 -31l295 -905q10 -29 19.5 -43t37.5 -18v-25h-243v25q35 6 34 32q0 12 -6 29l-71 225h-392l-67 -225q-2 -6 -4 -13t-2 -14q0 -29 39 -34v-25h-232zM194 1358q0 41 29 71t70 30 t70.5 -30t29.5 -71q0 -43 -30 -70.5t-70 -27.5q-41 0 -70 27.5t-29 70.5zM315 440h308l-158 492zM575 1358q0 41 29 71t69 30q41 0 71 -30t30 -71q0 -43 -30 -70.5t-71 -27.5t-69.5 27.5t-28.5 70.5z" />
<glyph unicode="&#xc5;" horiz-adv-x="962" d="M8 0v25q49 12 64 61l276 905q8 27 8 37q0 20 -37 25v22h310v-22q-35 -4 -35 -31q0 -10 6 -31l295 -905q10 -29 19.5 -43t37.5 -18v-25h-243v25q35 6 34 32q0 12 -6 29l-71 225h-392l-67 -225q-2 -6 -4 -13t-2 -14q0 -29 39 -34v-25h-232zM233 1382q0 49 18.5 93.5 t51.5 77t77 52t95 19.5q49 0 93 -19.5t77 -52t51.5 -76.5t18.5 -94q0 -49 -18.5 -93t-51.5 -76.5t-77 -51t-93 -18.5q-51 0 -95 18.5t-77 51t-51.5 76.5t-18.5 93zM315 440h308l-158 492zM326 1384q0 -63 43 -107t104 -44t106.5 44t45.5 107q0 61 -45 105.5t-107 44.5 q-61 0 -104 -44.5t-43 -105.5z" />
<glyph unicode="&#xc6;" horiz-adv-x="1466" d="M-47 0v25q45 12 72 61l462 905q6 12 7 23q0 27 -54 39v22h893q41 0 47 47h23v-211h-23q-4 23 -14 32t-33 9h-493v-329h362q41 0 47 47h23v-211h-23q-4 23 -14 32t-33 9h-362v-367h506q39 0 45 45h24v-219h-24q-6 41 -48 41h-698v25q31 10 38 20t7 39v223h-391l-113 -221 q-6 -16 -6 -27q0 -29 39 -34v-25h-266zM354 430h336v522h-67z" />
<glyph unicode="&#xc7;" d="M78 537q0 123 36 225t99 176t151.5 115t192.5 41q70 0 124 -17.5t94 -38t67.5 -38t48.5 -17.5q16 0 35 8l18 -12l-137 -199l-21 13q2 6 2 16q0 27 -18 54.5t-50 50t-75 37t-90 14.5q-68 0 -126 -31t-101 -87t-67.5 -135t-24.5 -173q0 -96 24.5 -174t67.5 -133.5t101 -86 t126 -30.5q53 0 98 18.5t77 44t50.5 54t18.5 51.5q0 14 -8 36l18 15l160 -197l-19 -16q-27 10 -37 10q-18 0 -37.5 -17.5t-48.5 -39.5q-111 -92 -272 -92q-104 0 -191.5 40.5t-150.5 114.5t-99 175.5t-36 224.5zM270 -371l35 78q70 -41 128.5 -56.5t94.5 -15.5q121 0 121 93 q0 41 -28.5 65.5t-81.5 24.5q-8 0 -23.5 -2t-40.5 -6v190h64v-113q45 6 69 7q80 0 127 -45.5t47 -118.5q0 -80 -57 -128t-162 -48q-70 0 -140.5 21.5t-152.5 53.5z" />
<glyph unicode="&#xc8;" horiz-adv-x="937" d="M115 0v25q29 8 38 19t9 40v907q0 29 -9.5 41t-37.5 21v22h694q41 0 47 47h23v-211h-23q-8 41 -49 41h-494v-329h365q39 0 45 47h25v-211h-25q-4 23 -14.5 32t-32.5 9h-363v-367h506q41 0 47 45h23v-219h-23q-6 41 -49 41h-702zM211 1491q0 29 19.5 50.5t54.5 21.5 q25 0 47.5 -15.5t48.5 -43.5l289 -299h-67l-330 205q-61 39 -62 81z" />
<glyph unicode="&#xc9;" horiz-adv-x="937" d="M115 0v25q29 8 38 19t9 40v907q0 29 -9.5 41t-37.5 21v22h694q41 0 47 47h23v-211h-23q-8 41 -49 41h-494v-329h365q39 0 45 47h25v-211h-25q-4 23 -14.5 32t-32.5 9h-363v-367h506q41 0 47 45h23v-219h-23q-6 41 -49 41h-702zM318 1205l289 299q27 29 49 44t47 15 q35 0 54.5 -21.5t19.5 -50.5q0 -43 -62 -81l-330 -205h-67z" />
<glyph unicode="&#xca;" horiz-adv-x="937" d="M115 0v25q29 8 38 19t9 40v907q0 29 -9.5 41t-37.5 21v22h694q41 0 47 47h23v-211h-23q-8 41 -49 41h-494v-329h365q39 0 45 47h25v-211h-25q-4 23 -14.5 32t-32.5 9h-363v-367h506q41 0 47 45h23v-219h-23q-6 41 -49 41h-702zM203 1205l232 348h118l232 -348h-58 l-233 209l-233 -209h-58z" />
<glyph unicode="&#xcb;" horiz-adv-x="937" d="M115 0v25q29 8 38 19t9 40v907q0 29 -9.5 41t-37.5 21v22h694q41 0 47 47h23v-211h-23q-8 41 -49 41h-494v-329h365q39 0 45 47h25v-211h-25q-4 23 -14.5 32t-32.5 9h-363v-367h506q41 0 47 45h23v-219h-23q-6 41 -49 41h-702zM205 1358q0 41 29 71t70 30t70.5 -30 t29.5 -71q0 -43 -30 -70.5t-70 -27.5q-41 0 -70 27.5t-29 70.5zM586 1358q0 41 29 71t69 30q41 0 71 -30t30 -71q0 -43 -30 -70.5t-71 -27.5t-69.5 27.5t-28.5 70.5z" />
<glyph unicode="&#xcc;" horiz-adv-x="497" d="M-31 1491q0 29 19.5 50.5t54.5 21.5q25 0 47.5 -15.5t48.5 -43.5l289 -299h-67l-330 205q-61 39 -62 81zM121 0v25q31 8 41 19t10 40v907q0 29 -10 41t-41 21v22h254v-22q-31 -8 -41 -20.5t-10 -41.5v-907q0 -29 10 -40t41 -19v-25h-254z" />
<glyph unicode="&#xcd;" horiz-adv-x="497" d="M76 1205l289 299q27 29 49 44t47 15q35 0 54.5 -21.5t19.5 -50.5q0 -43 -62 -81l-330 -205h-67zM121 0v25q31 8 41 19t10 40v907q0 29 -10 41t-41 21v22h254v-22q-31 -8 -41 -20.5t-10 -41.5v-907q0 -29 10 -40t41 -19v-25h-254z" />
<glyph unicode="&#xce;" horiz-adv-x="497" d="M-39 1205l232 348h118l232 -348h-58l-233 209l-233 -209h-58zM121 0v25q31 8 41 19t10 40v907q0 29 -10 41t-41 21v22h254v-22q-31 -8 -41 -20.5t-10 -41.5v-907q0 -29 10 -40t41 -19v-25h-254z" />
<glyph unicode="&#xcf;" horiz-adv-x="497" d="M-37 1358q0 41 29 71t70 30t70.5 -30t29.5 -71q0 -43 -30 -70.5t-70 -27.5q-41 0 -70 27.5t-29 70.5zM121 0v25q31 8 41 19t10 40v907q0 29 -10 41t-41 21v22h254v-22q-31 -8 -41 -20.5t-10 -41.5v-907q0 -29 10 -40t41 -19v-25h-254zM344 1358q0 41 29 71t69 30 q41 0 71 -30t30 -71q0 -43 -30 -70.5t-71 -27.5t-69.5 27.5t-28.5 70.5z" />
<glyph unicode="&#xd0;" horiz-adv-x="1095" d="M10 502v96h160v393q0 29 -9 41t-38 21v22h332q102 0 185 -10t153 -53q217 -137 217 -465q0 -547 -555 -547h-332v25q29 8 38 19t9 40v418h-160zM322 133h116q111 0 190 21.5t129 69.5t73.5 126t23.5 191q0 219 -95 313t-300 94h-137v-350h260v-96h-260v-369z" />
<glyph unicode="&#xd1;" horiz-adv-x="1085" d="M115 0v20q47 6 47 48v923q0 27 -8.5 41.5t-36.5 24.5v18h307v-18q-49 -12 -49 -45q0 -14 4 -21l412 -672v689q0 43 -52 49v18h230v-18q-45 -6 -45 -49v-940q0 -45 49 -48v-20h-244v20q41 6 41 33q0 6 -4 23l-471 782v-790q0 -23 10 -33t39 -15v-20h-229zM256 1252 q37 211 197 211q33 0 63 -8l111 -29q41 -10 55 -10q39 0 58.5 19.5t35.5 66.5h54q-39 -205 -195 -205q-29 0 -74 10l-108 29q-25 6 -49 6q-41 0 -60.5 -20.5t-36.5 -69.5h-51z" />
<glyph unicode="&#xd2;" horiz-adv-x="1110" d="M78 537q0 123 36 225t99 176t150.5 115t191.5 41t191.5 -41t149.5 -115t98 -176.5t36 -224.5q0 -123 -36 -224.5t-98 -175.5t-149.5 -114.5t-191.5 -40.5t-191.5 40.5t-150.5 114.5t-99 175.5t-36 224.5zM236 539q0 -96 24.5 -174t67.5 -133.5t101 -86t126 -30.5 t126 30.5t101 86t67.5 133t24.5 174.5q0 94 -23.5 173t-66.5 135t-101 87t-128 31q-68 0 -126 -31t-101 -87t-67.5 -135t-24.5 -173zM272 1491q0 29 19.5 50.5t54.5 21.5q25 0 47.5 -15.5t48.5 -43.5l289 -299h-67l-330 205q-61 39 -62 81z" />
<glyph unicode="&#xd3;" horiz-adv-x="1110" d="M78 537q0 123 36 225t99 176t150.5 115t191.5 41t191.5 -41t149.5 -115t98 -176.5t36 -224.5q0 -123 -36 -224.5t-98 -175.5t-149.5 -114.5t-191.5 -40.5t-191.5 40.5t-150.5 114.5t-99 175.5t-36 224.5zM236 539q0 -96 24.5 -174t67.5 -133.5t101 -86t126 -30.5 t126 30.5t101 86t67.5 133t24.5 174.5q0 94 -23.5 173t-66.5 135t-101 87t-128 31q-68 0 -126 -31t-101 -87t-67.5 -135t-24.5 -173zM379 1205l289 299q27 29 49 44t47 15q35 0 54.5 -21.5t19.5 -50.5q0 -43 -62 -81l-330 -205h-67z" />
<glyph unicode="&#xd4;" horiz-adv-x="1110" d="M78 537q0 123 36 225t99 176t150.5 115t191.5 41t191.5 -41t149.5 -115t98 -176.5t36 -224.5q0 -123 -36 -224.5t-98 -175.5t-149.5 -114.5t-191.5 -40.5t-191.5 40.5t-150.5 114.5t-99 175.5t-36 224.5zM236 539q0 -96 24.5 -174t67.5 -133.5t101 -86t126 -30.5 t126 30.5t101 86t67.5 133t24.5 174.5q0 94 -23.5 173t-66.5 135t-101 87t-128 31q-68 0 -126 -31t-101 -87t-67.5 -135t-24.5 -173zM264 1205l232 348h118l232 -348h-58l-233 209l-233 -209h-58z" />
<glyph unicode="&#xd5;" horiz-adv-x="1110" d="M78 537q0 123 36 225t99 176t150.5 115t191.5 41t191.5 -41t149.5 -115t98 -176.5t36 -224.5q0 -123 -36 -224.5t-98 -175.5t-149.5 -114.5t-191.5 -40.5t-191.5 40.5t-150.5 114.5t-99 175.5t-36 224.5zM236 539q0 -96 24.5 -174t67.5 -133.5t101 -86t126 -30.5 t126 30.5t101 86t67.5 133t24.5 174.5q0 94 -23.5 173t-66.5 135t-101 87t-128 31q-68 0 -126 -31t-101 -87t-67.5 -135t-24.5 -173zM268 1252q37 211 197 211q33 0 63 -8l111 -29q41 -10 55 -10q39 0 58.5 19.5t35.5 66.5h54q-39 -205 -195 -205q-29 0 -74 10l-108 29 q-25 6 -49 6q-41 0 -60.5 -20.5t-36.5 -69.5h-51z" />
<glyph unicode="&#xd6;" horiz-adv-x="1110" d="M78 537q0 123 36 225t99 176t150.5 115t191.5 41t191.5 -41t149.5 -115t98 -176.5t36 -224.5q0 -123 -36 -224.5t-98 -175.5t-149.5 -114.5t-191.5 -40.5t-191.5 40.5t-150.5 114.5t-99 175.5t-36 224.5zM236 539q0 -96 24.5 -174t67.5 -133.5t101 -86t126 -30.5 t126 30.5t101 86t67.5 133t24.5 174.5q0 94 -23.5 173t-66.5 135t-101 87t-128 31q-68 0 -126 -31t-101 -87t-67.5 -135t-24.5 -173zM266 1358q0 41 29 71t70 30t70.5 -30t29.5 -71q0 -43 -30 -70.5t-70 -27.5q-41 0 -70 27.5t-29 70.5zM647 1358q0 41 29 71t69 30 q41 0 71 -30t30 -71q0 -43 -30 -70.5t-71 -27.5t-69.5 27.5t-28.5 70.5z" />
<glyph unicode="&#xd7;" horiz-adv-x="1705" d="M305 129l481 481l-481 482l70 69l481 -481l481 481l70 -69l-481 -482l481 -481l-70 -70l-481 482l-481 -482z" />
<glyph unicode="&#xd8;" horiz-adv-x="1110" d="M78 537q0 121 36 223t98 176t150.5 116t192.5 42q106 0 197 -45l114 215l86 -45l-118 -226q197 -162 196 -456q0 -123 -36 -224.5t-98 -175.5t-149.5 -114.5t-191.5 -40.5q-123 0 -223 55l-121 -232l-86 45l129 246q-92 92 -134 198.5t-42 242.5zM236 539 q0 -90 21.5 -164t68.5 -142l362 697q-57 35 -133 35q-68 0 -126 -31t-101 -87t-67.5 -135t-24.5 -173zM399 162q37 -27 74 -37t82 -10q70 0 129 31.5t102 89t68 139.5t25 184q0 205 -111 309z" />
<glyph unicode="&#xd9;" horiz-adv-x="1071" d="M109 1053v22h253v-22q-31 -8 -41 -19.5t-10 -40.5v-604q0 -145 49.5 -212.5t178.5 -67.5q123 0 172 68.5t49 211.5v604q0 29 -9.5 40t-39.5 20v22h252v-22q-53 -10 -54 -60v-637q0 -375 -370 -374q-193 0 -285 91t-92 283v637q0 29 -12.5 41.5t-40.5 18.5zM254 1491 q0 29 19.5 50.5t54.5 21.5q25 0 47.5 -15.5t48.5 -43.5l289 -299h-67l-330 205q-61 39 -62 81z" />
<glyph unicode="&#xda;" horiz-adv-x="1071" d="M109 1053v22h253v-22q-31 -8 -41 -19.5t-10 -40.5v-604q0 -145 49.5 -212.5t178.5 -67.5q123 0 172 68.5t49 211.5v604q0 29 -9.5 40t-39.5 20v22h252v-22q-53 -10 -54 -60v-637q0 -375 -370 -374q-193 0 -285 91t-92 283v637q0 29 -12.5 41.5t-40.5 18.5zM361 1205 l289 299q27 29 49 44t47 15q35 0 54.5 -21.5t19.5 -50.5q0 -43 -62 -81l-330 -205h-67z" />
<glyph unicode="&#xdb;" horiz-adv-x="1071" d="M109 1053v22h253v-22q-31 -8 -41 -19.5t-10 -40.5v-604q0 -145 49.5 -212.5t178.5 -67.5q123 0 172 68.5t49 211.5v604q0 29 -9.5 40t-39.5 20v22h252v-22q-53 -10 -54 -60v-637q0 -375 -370 -374q-193 0 -285 91t-92 283v637q0 29 -12.5 41.5t-40.5 18.5zM246 1205 l232 348h118l232 -348h-58l-233 209l-233 -209h-58z" />
<glyph unicode="&#xdc;" horiz-adv-x="1071" d="M109 1053v22h253v-22q-31 -8 -41 -19.5t-10 -40.5v-604q0 -145 49.5 -212.5t178.5 -67.5q123 0 172 68.5t49 211.5v604q0 29 -9.5 40t-39.5 20v22h252v-22q-53 -10 -54 -60v-637q0 -375 -370 -374q-193 0 -285 91t-92 283v637q0 29 -12.5 41.5t-40.5 18.5zM248 1358 q0 41 29 71t70 30t70.5 -30t29.5 -71q0 -43 -30 -70.5t-70 -27.5q-41 0 -70 27.5t-29 70.5zM629 1358q0 41 29 71t69 30q41 0 71 -30t30 -71q0 -43 -30 -70.5t-71 -27.5t-69.5 27.5t-28.5 70.5z" />
<glyph unicode="&#xdd;" horiz-adv-x="876" d="M0 1053v22h272v-22q-25 -2 -35 -6.5t-10 -20.5q0 -8 6 -16l220 -377l202 358q12 20 13 37q0 23 -50 25v22h265v-22q-29 -2 -44.5 -10.5t-27.5 -30.5l-293 -512v-416q0 -45 51 -59v-25h-250v25q31 10 38.5 20t7.5 39v408l-308 524q-10 18 -22 26.5t-35 10.5zM264 1205 l289 299q27 29 49 44t47 15q35 0 54.5 -21.5t19.5 -50.5q0 -43 -62 -81l-330 -205h-67z" />
<glyph unicode="&#xde;" horiz-adv-x="948" d="M119 0v25q29 8 38 19t9 40v907q0 29 -8 41t-39 21v22h243v-22q-31 -8 -39 -20.5t-8 -41.5v-143h236q166 0 258 -84t92 -221q0 -147 -94 -230.5t-275 -83.5h-217v-145q0 -29 8.5 -40t38.5 -19v-25h-243zM315 356h222q213 0 213 181q0 182 -230 182h-205v-363z" />
<glyph unicode="&#xdf;" horiz-adv-x="1695" d="M63 35l132 227l20 -14q-4 -16 -4 -25q0 -49 58.5 -85t154.5 -36q92 0 144.5 36t52.5 100q0 59 -42 90.5t-133 54.5q-78 20 -142 38.5t-112.5 47.5t-75 72t-26.5 114q0 51 22.5 96.5t63.5 79t101.5 53t134.5 19.5q66 0 113.5 -10t80.5 -22.5t53.5 -22.5t30.5 -10 q14 0 45 26l21 -12l-115 -201l-20 13q4 12 4 20q0 41 -56.5 72.5t-148.5 31.5q-96 0 -145.5 -31.5t-49.5 -90.5q0 -37 18.5 -59.5t53.5 -38t85 -29t116 -29.5q133 -35 197.5 -96.5t64.5 -165.5q0 -123 -88 -195.5t-248 -72.5q-66 0 -117 10t-87 23.5t-59.5 23.5t-33.5 10 q-16 0 -43 -24zM911 35l132 227l20 -14q-4 -16 -4 -25q0 -49 58.5 -85t154.5 -36q92 0 144.5 36t52.5 100q0 59 -42 90.5t-133 54.5q-78 20 -142 38.5t-112.5 47.5t-75 72t-26.5 114q0 51 22.5 96.5t63.5 79t101.5 53t134.5 19.5q66 0 113.5 -10t80.5 -22.5t53.5 -22.5 t30.5 -10q14 0 45 26l21 -12l-115 -201l-20 13q4 12 4 20q0 41 -56.5 72.5t-148.5 31.5q-96 0 -145.5 -31.5t-49.5 -90.5q0 -37 18.5 -59.5t53.5 -38t85 -29t116 -29.5q133 -35 197.5 -96.5t64.5 -165.5q0 -123 -88 -195.5t-248 -72.5q-66 0 -117 10t-87 23.5t-59.5 23.5 t-33.5 10q-16 0 -43 -24z" />
<glyph unicode="&#xe0;" horiz-adv-x="817" d="M0 0v25q27 6 40 20t23 41l228 711q4 14 6 23t2 14q0 20 -37 24v25h281v-25q-35 -4 -35 -33q0 -10 6 -28l242 -711q10 -27 19 -42t38 -19v-25h-225v25q33 6 33 32v13.5t-5 15.5l-53 164h-323l-56 -164q-6 -18 -6 -27q0 -29 39 -34v-25h-217zM129 1298q0 29 19.5 50.5 t54.5 21.5q25 0 47.5 -15.5t48.5 -43.5l289 -299h-67l-330 205q-61 39 -62 81zM274 362h250l-127 383z" />
<glyph unicode="&#xe1;" horiz-adv-x="817" d="M0 0v25q27 6 40 20t23 41l228 711q4 14 6 23t2 14q0 20 -37 24v25h281v-25q-35 -4 -35 -33q0 -10 6 -28l242 -711q10 -27 19 -42t38 -19v-25h-225v25q33 6 33 32v13.5t-5 15.5l-53 164h-323l-56 -164q-6 -18 -6 -27q0 -29 39 -34v-25h-217zM236 1012l289 299q27 29 49 44 t47 15q35 0 54.5 -21.5t19.5 -50.5q0 -43 -62 -81l-330 -205h-67zM274 362h250l-127 383z" />
<glyph unicode="&#xe2;" horiz-adv-x="817" d="M0 0v25q27 6 40 20t23 41l228 711q4 14 6 23t2 14q0 20 -37 24v25h281v-25q-35 -4 -35 -33q0 -10 6 -28l242 -711q10 -27 19 -42t38 -19v-25h-225v25q33 6 33 32v13.5t-5 15.5l-53 164h-323l-56 -164q-6 -18 -6 -27q0 -29 39 -34v-25h-217zM121 1012l232 348h118 l232 -348h-58l-233 209l-233 -209h-58zM274 362h250l-127 383z" />
<glyph unicode="&#xe3;" horiz-adv-x="817" d="M0 0v25q27 6 40 20t23 41l228 711q4 14 6 23t2 14q0 20 -37 24v25h281v-25q-35 -4 -35 -33q0 -10 6 -28l242 -711q10 -27 19 -42t38 -19v-25h-225v25q33 6 33 32v13.5t-5 15.5l-53 164h-323l-56 -164q-6 -18 -6 -27q0 -29 39 -34v-25h-217zM125 1059q37 211 197 211 q33 0 63 -8l111 -29q41 -10 55 -10q39 0 58.5 19.5t35.5 66.5h54q-39 -205 -195 -205q-29 0 -74 10l-108 29q-25 6 -49 6q-41 0 -60.5 -20.5t-36.5 -69.5h-51zM274 362h250l-127 383z" />
<glyph unicode="&#xe4;" horiz-adv-x="817" d="M0 0v25q27 6 40 20t23 41l228 711q4 14 6 23t2 14q0 20 -37 24v25h281v-25q-35 -4 -35 -33q0 -10 6 -28l242 -711q10 -27 19 -42t38 -19v-25h-225v25q33 6 33 32v13.5t-5 15.5l-53 164h-323l-56 -164q-6 -18 -6 -27q0 -29 39 -34v-25h-217zM123 1165q0 41 29 71t70 30 t70.5 -30t29.5 -71q0 -43 -30 -70.5t-70 -27.5q-41 0 -70 27.5t-29 70.5zM274 362h250l-127 383zM504 1165q0 41 29 71t69 30q41 0 71 -30t30 -71q0 -43 -30 -70.5t-71 -27.5t-69.5 27.5t-28.5 70.5z" />
<glyph unicode="&#xe5;" horiz-adv-x="817" d="M0 0v25q27 6 40 20t23 41l228 711q4 14 6 23t2 14q0 20 -37 24v25h281v-25q-35 -4 -35 -33q0 -10 6 -28l242 -711q10 -27 19 -42t38 -19v-25h-225v25q33 6 33 32v13.5t-5 15.5l-53 164h-323l-56 -164q-6 -18 -6 -27q0 -29 39 -34v-25h-217zM172 1233q0 49 18.5 93 t50.5 77t76 52.5t95 19.5q49 0 93 -19.5t77 -52.5t52.5 -77t19.5 -93t-19.5 -93t-52.5 -77t-77 -51.5t-93 -18.5q-51 0 -95 18.5t-76 51.5t-50.5 77t-18.5 93zM262 1235q0 -63 44.5 -107.5t105.5 -44.5t105.5 44t44.5 108q0 61 -44.5 105t-105.5 44t-105.5 -44t-44.5 -105z M274 362h250l-127 383z" />
<glyph unicode="&#xe6;" horiz-adv-x="1300" d="M-37 0v25q47 10 74 61l379 711q12 25 12 32q0 25 -43 29v25h760q39 0 45 47h22v-207h-22q-4 23 -14.5 32t-32.5 9h-404v-248h291q41 0 47 47h23v-205h-23q-4 23 -14 31t-33 8h-291v-274h414q41 0 47 47h23v-209h-23q-4 23 -15 31t-34 8h-600v25q29 8 38 19t9 40v166h-332 l-86 -164q-10 -18 -10 -27q0 -29 39 -34v-25h-246zM324 362h274v402h-68z" />
<glyph unicode="&#xe7;" horiz-adv-x="882" d="M70 440q0 102 30.5 187.5t86 147t131 96t163.5 34.5q57 0 102.5 -14t80 -31.5t59.5 -32t43 -14.5q10 0 35 10l18 -14l-139 -182l-18 14q2 6 2 18q0 47 -51.5 85t-133.5 38q-57 0 -105 -24.5t-84 -69.5t-55.5 -107.5t-19.5 -138.5q0 -154 73.5 -247t194.5 -93 q43 0 79 13.5t61.5 33t40 43t14.5 46.5q0 6 -10 36l20 15l150 -183l-19 -14q-31 10 -39 10q-14 0 -35.5 -19.5t-57.5 -42t-86 -41.5t-122 -19q-90 0 -164.5 33.5t-129 95t-85 146.5t-30.5 185zM206 -371l35 78q70 -41 128.5 -56.5t94.5 -15.5q121 0 121 93q0 41 -28.5 65.5 t-81.5 24.5q-8 0 -23.5 -2t-40.5 -6v190h64v-113q45 6 69 7q80 0 127 -45.5t47 -118.5q0 -80 -57 -128t-162 -48q-70 0 -140.5 21.5t-152.5 53.5z" />
<glyph unicode="&#xe8;" horiz-adv-x="851" d="M100 0v25q29 8 38 19t9 40v715q0 29 -9 40t-38 19v25h594q39 0 45 47h23v-207h-23q-4 23 -14 32t-33 9h-403v-248h293q39 0 45 47h22v-205h-22q-4 23 -14.5 31t-32.5 8h-291v-274h413q41 0 48 47h22v-209h-22q-4 23 -14.5 31t-33.5 8h-602zM145 1298q0 29 19.5 50.5 t54.5 21.5q25 0 47.5 -15.5t48.5 -43.5l289 -299h-67l-330 205q-61 39 -62 81z" />
<glyph unicode="&#xe9;" horiz-adv-x="851" d="M100 0v25q29 8 38 19t9 40v715q0 29 -9 40t-38 19v25h594q39 0 45 47h23v-207h-23q-4 23 -14 32t-33 9h-403v-248h293q39 0 45 47h22v-205h-22q-4 23 -14.5 31t-32.5 8h-291v-274h413q41 0 48 47h22v-209h-22q-4 23 -14.5 31t-33.5 8h-602zM252 1012l289 299q27 29 49 44 t47 15q35 0 54.5 -21.5t19.5 -50.5q0 -43 -62 -81l-330 -205h-67z" />
<glyph unicode="&#xea;" horiz-adv-x="851" d="M100 0v25q29 8 38 19t9 40v715q0 29 -9 40t-38 19v25h594q39 0 45 47h23v-207h-23q-4 23 -14 32t-33 9h-403v-248h293q39 0 45 47h22v-205h-22q-4 23 -14.5 31t-32.5 8h-291v-274h413q41 0 48 47h22v-209h-22q-4 23 -14.5 31t-33.5 8h-602zM137 1012l232 348h118 l232 -348h-58l-233 209l-233 -209h-58z" />
<glyph unicode="&#xeb;" horiz-adv-x="851" d="M100 0v25q29 8 38 19t9 40v715q0 29 -9 40t-38 19v25h594q39 0 45 47h23v-207h-23q-4 23 -14 32t-33 9h-403v-248h293q39 0 45 47h22v-205h-22q-4 23 -14.5 31t-32.5 8h-291v-274h413q41 0 48 47h22v-209h-22q-4 23 -14.5 31t-33.5 8h-602zM139 1165q0 41 29 71t70 30 t70.5 -30t29.5 -71q0 -43 -30 -70.5t-70 -27.5q-41 0 -70 27.5t-29 70.5zM520 1165q0 41 29 71t69 30q41 0 71 -30t30 -71q0 -43 -30 -70.5t-71 -27.5t-69.5 27.5t-28.5 70.5z" />
<glyph unicode="&#xec;" horiz-adv-x="448" d="M-56 1298q0 29 19.5 50.5t54.5 21.5q25 0 47.5 -15.5t48.5 -43.5l289 -299h-67l-330 205q-61 39 -62 81zM104 0v25q29 8 39.5 19t10.5 40v715q0 29 -10.5 40t-39.5 19v25h240v-25q-29 -8 -39 -19.5t-10 -39.5v-715q0 -29 10 -40t39 -19v-25h-240z" />
<glyph unicode="&#xed;" horiz-adv-x="448" d="M51 1012l289 299q27 29 49 44t47 15q35 0 54.5 -21.5t19.5 -50.5q0 -43 -62 -81l-330 -205h-67zM104 0v25q29 8 39.5 19t10.5 40v715q0 29 -10.5 40t-39.5 19v25h240v-25q-29 -8 -39 -19.5t-10 -39.5v-715q0 -29 10 -40t39 -19v-25h-240z" />
<glyph unicode="&#xee;" horiz-adv-x="448" d="M-64 1012l232 348h118l232 -348h-58l-233 209l-233 -209h-58zM104 0v25q29 8 39.5 19t10.5 40v715q0 29 -10.5 40t-39.5 19v25h240v-25q-29 -8 -39 -19.5t-10 -39.5v-715q0 -29 10 -40t39 -19v-25h-240z" />
<glyph unicode="&#xef;" horiz-adv-x="448" d="M-62 1165q0 41 29 71t70 30t70.5 -30t29.5 -71q0 -43 -30 -70.5t-70 -27.5q-41 0 -70 27.5t-29 70.5zM104 0v25q29 8 39.5 19t10.5 40v715q0 29 -10.5 40t-39.5 19v25h240v-25q-29 -8 -39 -19.5t-10 -39.5v-715q0 -29 10 -40t39 -19v-25h-240zM319 1165q0 41 29 71t69 30 q41 0 71 -30t30 -71q0 -43 -30 -70.5t-71 -27.5t-69.5 27.5t-28.5 70.5z" />
<glyph unicode="&#xf1;" horiz-adv-x="935" d="M96 862v21h297v-21q-51 -8 -51 -43q0 -12 6 -20l318 -510v526q0 41 -52 47v21h222v-21q-47 -6 -48 -49v-745q0 -45 52 -48v-20h-224v20q39 6 39 29q0 8 -2 14l-383 615v-610q0 -41 49 -48v-20h-219v20q47 6 47 50v745q0 45 -51 47zM184 1059q37 211 197 211q33 0 63 -8 l111 -29q41 -10 55 -10q39 0 58.5 19.5t35.5 66.5h54q-39 -205 -195 -205q-29 0 -74 10l-108 29q-25 6 -49 6q-41 0 -60.5 -20.5t-36.5 -69.5h-51z" />
<glyph unicode="&#xf2;" horiz-adv-x="958" d="M70 440q0 100 30.5 185.5t85 147t129 96t164.5 34.5t165 -34.5t129 -96t85 -146.5t31 -186q0 -100 -31 -185t-85 -146.5t-129 -95t-165 -33.5t-164.5 33.5t-129 95t-85 145.5t-30.5 186zM198 1298q0 29 19.5 50.5t54.5 21.5q25 0 47.5 -15.5t48.5 -43.5l289 -299h-67 l-330 205q-61 39 -62 81zM215 442q0 -78 19.5 -140t55.5 -106t84 -69t105 -25t105.5 25t83 69t54 106.5t19.5 139.5q0 152 -72.5 246t-189.5 94q-57 0 -105 -24.5t-84 -69.5t-55.5 -107.5t-19.5 -138.5z" />
<glyph unicode="&#xf3;" horiz-adv-x="958" d="M70 440q0 100 30.5 185.5t85 147t129 96t164.5 34.5t165 -34.5t129 -96t85 -146.5t31 -186q0 -100 -31 -185t-85 -146.5t-129 -95t-165 -33.5t-164.5 33.5t-129 95t-85 145.5t-30.5 186zM215 442q0 -78 19.5 -140t55.5 -106t84 -69t105 -25t105.5 25t83 69t54 106.5 t19.5 139.5q0 152 -72.5 246t-189.5 94q-57 0 -105 -24.5t-84 -69.5t-55.5 -107.5t-19.5 -138.5zM305 1012l289 299q27 29 49 44t47 15q35 0 54.5 -21.5t19.5 -50.5q0 -43 -62 -81l-330 -205h-67z" />
<glyph unicode="&#xf4;" horiz-adv-x="958" d="M70 440q0 100 30.5 185.5t85 147t129 96t164.5 34.5t165 -34.5t129 -96t85 -146.5t31 -186q0 -100 -31 -185t-85 -146.5t-129 -95t-165 -33.5t-164.5 33.5t-129 95t-85 145.5t-30.5 186zM190 1012l232 348h118l232 -348h-58l-233 209l-233 -209h-58zM215 442 q0 -78 19.5 -140t55.5 -106t84 -69t105 -25t105.5 25t83 69t54 106.5t19.5 139.5q0 152 -72.5 246t-189.5 94q-57 0 -105 -24.5t-84 -69.5t-55.5 -107.5t-19.5 -138.5z" />
<glyph unicode="&#xf5;" horiz-adv-x="958" d="M70 440q0 100 30.5 185.5t85 147t129 96t164.5 34.5t165 -34.5t129 -96t85 -146.5t31 -186q0 -100 -31 -185t-85 -146.5t-129 -95t-165 -33.5t-164.5 33.5t-129 95t-85 145.5t-30.5 186zM194 1059q37 211 197 211q33 0 63 -8l111 -29q41 -10 55 -10q39 0 58.5 19.5 t35.5 66.5h54q-39 -205 -195 -205q-29 0 -74 10l-108 29q-25 6 -49 6q-41 0 -60.5 -20.5t-36.5 -69.5h-51zM215 442q0 -78 19.5 -140t55.5 -106t84 -69t105 -25t105.5 25t83 69t54 106.5t19.5 139.5q0 152 -72.5 246t-189.5 94q-57 0 -105 -24.5t-84 -69.5t-55.5 -107.5 t-19.5 -138.5z" />
<glyph unicode="&#xf6;" horiz-adv-x="958" d="M70 440q0 100 30.5 185.5t85 147t129 96t164.5 34.5t165 -34.5t129 -96t85 -146.5t31 -186q0 -100 -31 -185t-85 -146.5t-129 -95t-165 -33.5t-164.5 33.5t-129 95t-85 145.5t-30.5 186zM192 1165q0 41 29 71t70 30t70.5 -30t29.5 -71q0 -43 -30 -70.5t-70 -27.5 q-41 0 -70 27.5t-29 70.5zM215 442q0 -78 19.5 -140t55.5 -106t84 -69t105 -25t105.5 25t83 69t54 106.5t19.5 139.5q0 152 -72.5 246t-189.5 94q-57 0 -105 -24.5t-84 -69.5t-55.5 -107.5t-19.5 -138.5zM573 1165q0 41 29 71t69 30q41 0 71 -30t30 -71q0 -43 -30 -70.5 t-71 -27.5t-69.5 27.5t-28.5 70.5z" />
<glyph unicode="&#xf7;" horiz-adv-x="1705" d="M254 561v98h1198v-98h-1198zM748 258q0 45 31.5 76t74.5 31q45 0 76 -31t31 -76q0 -43 -30 -74.5t-77 -31.5q-45 0 -75.5 30.5t-30.5 75.5zM748 963q0 45 31.5 76.5t74.5 31.5q45 0 76 -31.5t31 -76.5q0 -43 -30 -75t-77 -32t-76.5 31t-29.5 76z" />
<glyph unicode="&#xf8;" horiz-adv-x="958" d="M70 438q0 102 29.5 188.5t84 148t132 95t173.5 33.5q88 0 168 -39l93 174l79 -45l-98 -178q158 -141 158 -373q0 -102 -32 -187t-87 -146.5t-132 -95t-167 -33.5q-92 0 -174 40l-107 -196l-77 45l108 203q-152 139 -151 366zM211 444q0 -156 76 -254l311 570 q-51 29 -115 28q-61 0 -111 -24.5t-86 -70.5t-55.5 -109.5t-19.5 -139.5zM356 129q29 -18 58.5 -25.5t64.5 -7.5q57 0 107.5 25.5t85.5 72t55.5 110t20.5 140.5q0 156 -80 254z" />
<glyph unicode="&#xf9;" horiz-adv-x="929" d="M90 858v25h244v-25q-31 -8 -41 -19.5t-10 -39.5v-469q0 -57 7 -100.5t27.5 -73t56.5 -44t93 -14.5t92 15.5t54.5 44t25.5 72.5t6 100v469q0 29 -11 41t-40 18v25h244v-25q-31 -8 -41.5 -19.5t-10.5 -39.5v-486q0 -168 -75.5 -249.5t-243.5 -81.5q-166 0 -245 74.5 t-79 234.5v508q0 29 -12 41t-41 18zM184 1298q0 29 19.5 50.5t54.5 21.5q25 0 47.5 -15.5t48.5 -43.5l289 -299h-67l-330 205q-61 39 -62 81z" />
<glyph unicode="&#xfa;" horiz-adv-x="929" d="M90 858v25h244v-25q-31 -8 -41 -19.5t-10 -39.5v-469q0 -57 7 -100.5t27.5 -73t56.5 -44t93 -14.5t92 15.5t54.5 44t25.5 72.5t6 100v469q0 29 -11 41t-40 18v25h244v-25q-31 -8 -41.5 -19.5t-10.5 -39.5v-486q0 -168 -75.5 -249.5t-243.5 -81.5q-166 0 -245 74.5 t-79 234.5v508q0 29 -12 41t-41 18zM291 1012l289 299q27 29 49 44t47 15q35 0 54.5 -21.5t19.5 -50.5q0 -43 -62 -81l-330 -205h-67z" />
<glyph unicode="&#xfb;" horiz-adv-x="929" d="M90 858v25h244v-25q-31 -8 -41 -19.5t-10 -39.5v-469q0 -57 7 -100.5t27.5 -73t56.5 -44t93 -14.5t92 15.5t54.5 44t25.5 72.5t6 100v469q0 29 -11 41t-40 18v25h244v-25q-31 -8 -41.5 -19.5t-10.5 -39.5v-486q0 -168 -75.5 -249.5t-243.5 -81.5q-166 0 -245 74.5 t-79 234.5v508q0 29 -12 41t-41 18zM176 1012l232 348h118l232 -348h-58l-233 209l-233 -209h-58z" />
<glyph unicode="&#xfc;" horiz-adv-x="929" d="M90 858v25h244v-25q-31 -8 -41 -19.5t-10 -39.5v-469q0 -57 7 -100.5t27.5 -73t56.5 -44t93 -14.5t92 15.5t54.5 44t25.5 72.5t6 100v469q0 29 -11 41t-40 18v25h244v-25q-31 -8 -41.5 -19.5t-10.5 -39.5v-486q0 -168 -75.5 -249.5t-243.5 -81.5q-166 0 -245 74.5 t-79 234.5v508q0 29 -12 41t-41 18zM178 1165q0 41 29 71t70 30t70.5 -30t29.5 -71q0 -43 -30 -70.5t-70 -27.5q-41 0 -70 27.5t-29 70.5zM559 1165q0 41 29 71t69 30q41 0 71 -30t30 -71q0 -43 -30 -70.5t-71 -27.5t-69.5 27.5t-28.5 70.5z" />
<glyph unicode="&#xfd;" horiz-adv-x="716" d="M-23 858v25h261v-25q-25 -2 -35 -6t-10 -21q0 -8 6 -16l174 -280l168 276q6 8 6 20q0 14 -10.5 18.5t-38.5 8.5v25h252v-25q-29 -2 -44.5 -10t-27.5 -31l-248 -405v-328q0 -45 51 -59v-25h-235v25q31 10 38 20t7 39v328l-254 409q-10 16 -22.5 24.5t-37.5 12.5zM184 1012 l289 299q27 29 49 44t47 15q35 0 54.5 -21.5t19.5 -50.5q0 -43 -62 -81l-330 -205h-67z" />
<glyph unicode="&#xff;" horiz-adv-x="716" d="M-23 858v25h261v-25q-25 -2 -35 -6t-10 -21q0 -8 6 -16l174 -280l168 276q6 8 6 20q0 14 -10.5 18.5t-38.5 8.5v25h252v-25q-29 -2 -44.5 -10t-27.5 -31l-248 -405v-328q0 -45 51 -59v-25h-235v25q31 10 38 20t7 39v328l-254 409q-10 16 -22.5 24.5t-37.5 12.5zM71 1165 q0 41 29 71t70 30t70.5 -30t29.5 -71q0 -43 -30 -70.5t-70 -27.5q-41 0 -70 27.5t-29 70.5zM452 1165q0 41 29 71t69 30q41 0 71 -30t30 -71q0 -43 -30 -70.5t-71 -27.5t-69.5 27.5t-28.5 70.5z" />
<glyph unicode="&#x152;" horiz-adv-x="1646" d="M78 537q0 123 36 225t99 176t150.5 115t191.5 41q102 0 178 -34t141 -110v125h644q41 0 47 47h22v-211h-22q-8 41 -49 41h-494v-329h364q41 0 48 47h22v-211h-22q-8 41 -50 41h-362v-367h506q41 0 47 45h22v-219h-22q-6 41 -49 41h-652v127q-121 -145 -319 -145 q-104 0 -191.5 40.5t-150.5 114.5t-99 175.5t-36 224.5zM236 539q0 -96 24.5 -174t67.5 -133.5t101 -86t126 -30.5t126 30.5t101 86t67.5 133t24.5 174.5q0 94 -23.5 173t-66.5 135t-101 87t-128 31q-68 0 -126 -31t-101 -87t-67.5 -135t-24.5 -173z" />
<glyph unicode="&#x153;" horiz-adv-x="1443" d="M70 440q0 100 30.5 185.5t85 147t129 96t164.5 34.5q106 0 183 -45q41 -23 79 -65v90h545q41 0 47 47h23v-207h-23q-8 41 -49 41h-401v-248h291q41 0 47 47h22v-205h-22q-4 23 -15.5 31t-34.5 8h-288v-274h413q39 0 45 47h23v-209h-23q-4 23 -14 31t-33 8h-553v94 q-53 -63 -114.5 -88.5t-147.5 -25.5q-90 0 -164.5 33.5t-129 95t-85 146.5t-30.5 185zM215 442q0 -78 19.5 -140t55.5 -106t84 -69t105 -25t105.5 25t83 69t54 106.5t19.5 139.5q0 152 -72.5 246t-189.5 94q-57 0 -105 -24.5t-84 -69.5t-55.5 -107.5t-19.5 -138.5z" />
<glyph unicode="&#x178;" horiz-adv-x="876" d="M0 1053v22h272v-22q-25 -2 -35 -6.5t-10 -20.5q0 -8 6 -16l220 -377l202 358q12 20 13 37q0 23 -50 25v22h265v-22q-29 -2 -44.5 -10.5t-27.5 -30.5l-293 -512v-416q0 -45 51 -59v-25h-250v25q31 10 38.5 20t7.5 39v408l-308 524q-10 18 -22 26.5t-35 10.5zM151 1358 q0 41 29 71t70 30t70.5 -30t29.5 -71q0 -43 -30 -70.5t-70 -27.5q-41 0 -70 27.5t-29 70.5zM532 1358q0 41 29 71t69 30q41 0 71 -30t30 -71q0 -43 -30 -70.5t-71 -27.5t-69.5 27.5t-28.5 70.5z" />
<glyph unicode="&#x2c6;" horiz-adv-x="1024" d="M221 1012l232 348h118l232 -348h-58l-233 209l-233 -209h-58z" />
<glyph unicode="&#x2dc;" horiz-adv-x="1024" d="M225 1059q37 211 197 211q33 0 63 -8l111 -29q41 -10 55 -10q39 0 58.5 19.5t35.5 66.5h54q-39 -205 -195 -205q-29 0 -74 10l-108 29q-25 6 -49 6q-41 0 -60.5 -20.5t-36.5 -69.5h-51z" />
<glyph unicode="&#x2000;" horiz-adv-x="812" />
<glyph unicode="&#x2001;" horiz-adv-x="1624" />
<glyph unicode="&#x2002;" horiz-adv-x="812" />
<glyph unicode="&#x2003;" horiz-adv-x="1624" />
<glyph unicode="&#x2004;" horiz-adv-x="541" />
<glyph unicode="&#x2005;" horiz-adv-x="406" />
<glyph unicode="&#x2006;" horiz-adv-x="270" />
<glyph unicode="&#x2007;" horiz-adv-x="270" />
<glyph unicode="&#x2008;" horiz-adv-x="203" />
<glyph unicode="&#x2009;" horiz-adv-x="324" />
<glyph unicode="&#x200a;" horiz-adv-x="90" />
<glyph unicode="&#x2010;" horiz-adv-x="671" d="M100 471v135h469v-135h-469z" />
<glyph unicode="&#x2011;" horiz-adv-x="671" d="M100 471v135h469v-135h-469z" />
<glyph unicode="&#x2012;" horiz-adv-x="671" d="M100 471v135h469v-135h-469z" />
<glyph unicode="&#x2013;" horiz-adv-x="1024" d="M0 487v101h1024v-101h-1024z" />
<glyph unicode="&#x2014;" horiz-adv-x="2048" d="M0 487v101h2048v-101h-2048z" />
<glyph unicode="&#x2018;" horiz-adv-x="473" d="M98 786q0 94 62.5 173t187.5 133v-64q-78 -41 -116.5 -88t-38.5 -86q0 -23 9 -25t31 -6q43 -6 63.5 -25.5t20.5 -60.5t-28.5 -70.5t-71.5 -29.5q-51 0 -85 40t-34 109z" />
<glyph unicode="&#x2019;" horiz-adv-x="473" d="M100 637v65q78 41 117 87.5t39 84.5q0 23 -9 25t-32 6q-82 12 -82 88q0 41 27.5 71t70.5 30q51 0 85 -40t34 -110q0 -94 -62.5 -174t-187.5 -133z" />
<glyph unicode="&#x201a;" horiz-adv-x="473" d="M100 -203q78 41 117 88t39 86q0 23 -9 25t-32 6q-82 12 -82 88q0 41 27.5 70.5t70.5 29.5q51 0 85 -40.5t34 -110.5q0 -94 -62.5 -173t-187.5 -132v63z" />
<glyph unicode="&#x201c;" horiz-adv-x="823" d="M98 786q0 94 62.5 173t187.5 133v-64q-78 -41 -116.5 -88t-38.5 -86q0 -23 9 -25t31 -6q43 -6 63.5 -25.5t20.5 -60.5t-28.5 -70.5t-71.5 -29.5q-51 0 -85 40t-34 109zM446 786q0 94 63.5 173t188.5 133v-64q-78 -41 -117.5 -88t-39.5 -86q0 -23 10 -25t33 -6 q43 -6 62.5 -25.5t19.5 -60.5t-29 -70.5t-72 -29.5q-51 0 -85 40t-34 109z" />
<glyph unicode="&#x201d;" horiz-adv-x="823" d="M100 637v65q78 41 117 87.5t39 84.5q0 23 -9 25t-32 6q-82 12 -82 88q0 41 27.5 71t70.5 30q51 0 85 -40t34 -110q0 -94 -62.5 -174t-187.5 -133zM449 637v65q78 41 117.5 87.5t39.5 84.5q0 23 -10 25t-33 6q-82 12 -82 88q0 41 28 71t71 30q51 0 84.5 -40t33.5 -110 q0 -94 -62.5 -174t-186.5 -133z" />
<glyph unicode="&#x201e;" horiz-adv-x="823" d="M100 -203q78 41 117 88t39 86q0 23 -9 25t-32 6q-82 12 -82 88q0 41 27.5 70.5t70.5 29.5q51 0 85 -40.5t34 -110.5q0 -94 -62.5 -173t-187.5 -132v63zM449 -203q78 41 117.5 88t39.5 86q0 23 -10 25t-33 6q-82 12 -82 88q0 41 28 70.5t71 29.5q51 0 84.5 -40.5 t33.5 -110.5q0 -94 -62.5 -173t-186.5 -132v63z" />
<glyph unicode="&#x2022;" horiz-adv-x="1208" d="M307 762q0 61 23.5 114.5t63.5 93.5t94.5 63.5t115.5 23.5t114.5 -23.5t93.5 -63.5t63.5 -93.5t23.5 -114.5t-23.5 -114.5t-63.5 -94.5t-94 -64.5t-116 -23.5q-61 0 -115.5 23.5t-94.5 63.5t-62.5 94.5t-22.5 115.5z" />
<glyph unicode="&#x2026;" horiz-adv-x="2048" d="M242 80q0 41 28.5 69.5t69.5 28.5t70.5 -27.5t29.5 -70.5q0 -41 -29.5 -69.5t-70.5 -28.5t-69.5 28.5t-28.5 69.5zM924 80q0 41 28.5 69.5t69.5 28.5t70.5 -27.5t29.5 -70.5q0 -41 -29.5 -69.5t-70.5 -28.5t-69.5 28.5t-28.5 69.5zM1608 80q0 41 28.5 69.5t69.5 28.5 t70.5 -27.5t29.5 -70.5q0 -41 -29.5 -69.5t-70.5 -28.5t-69.5 28.5t-28.5 69.5z" />
<glyph unicode="&#x202f;" horiz-adv-x="324" />
<glyph unicode="&#x2039;" horiz-adv-x="516" d="M84 440l235 301h138l-236 -301l236 -301h-138z" />
<glyph unicode="&#x203a;" horiz-adv-x="516" d="M61 139l236 301l-236 301h136l235 -301l-235 -301h-136z" />
<glyph unicode="&#x205f;" horiz-adv-x="406" />
<glyph unicode="&#x20ac;" d="M37 399l29 76h104q0 16 -1 30.5t-1 31.5q0 23 1 44t3 44h-135l29 75h116q35 180 144.5 287t279.5 107q70 0 124 -17.5t94 -38t68 -38t48 -17.5q16 0 35 8l18 -12l-137 -195l-20 13q2 6 2 16q0 45 -25 75t-60.5 47t-75.5 24.5t-73 7.5q-109 0 -176.5 -72t-93.5 -195h471 l-29 -75h-452q-2 -20 -3.5 -42t-1.5 -44q0 -16 1.5 -31.5t3.5 -32.5h399l-29 -76h-364q25 -133 94.5 -209.5t179.5 -76.5q61 0 107.5 18.5t77 44t45 54t14.5 51.5q0 14 -8 36l18 15l160 -195l-19 -16q-27 10 -36 10q-18 0 -38 -17.5t-48 -39.5q-111 -92 -273 -92 q-86 0 -157.5 29.5t-126 85t-91 132t-51.5 170.5h-141z" />
<glyph unicode="&#x2122;" horiz-adv-x="1705" d="M264 1397v57h430v-57h-172v-473h-82v473h-176zM821 924v530h117l166 -422l156 422h116v-530h-71v467l-177 -467h-49l-186 467v-467h-72z" />
<glyph unicode="&#x25fc;" horiz-adv-x="880" d="M0 0v881h881v-881h-881z" />
</font>
</defs>
</svg>
